<?xml version="1.0" standalone="no"?>
<!DOCTYPE svg PUBLIC "-//W3C//DTD SVG 1.1//EN" "http://www.w3.org/Graphics/SVG/1.1/DTD/svg11.dtd" >
<svg>
<metadata>
Created by FontForge 20110222 at Fri Sep 11 20:36:46 2015
 By www-data
Copyright (C) 1996-2005, Hoefler &#38; Frere-Jones, Inc. www.typography.com
</metadata>
<defs>
<font id="MercuryDisplay-Semibold" horiz-adv-x="500" >
  <font-face 
    font-family="Mercury Display"
    font-weight="600"
    font-stretch="normal"
    units-per-em="1000"
    panose-1="2 0 8 3 8 0 0 2 0 3"
    ascent="800"
    descent="-200"
    x-height="451"
    cap-height="637"
    bbox="-78 -259 968 900.722"
    underline-thickness="28"
    underline-position="-86"
    unicode-range="U+0020-FB02"
  />
<missing-glyph 
 />
    <glyph glyph-name=".notdef" 
 />
    <glyph glyph-name="NUL" horiz-adv-x="0" 
 />
    <glyph glyph-name="nonmarkingreturn" horiz-adv-x="220" 
 />
    <glyph glyph-name="space" unicode=" " horiz-adv-x="220" 
 />
    <glyph glyph-name="ring" unicode="&#x2da;" horiz-adv-x="259" 
d="M226 595q0 38 -24.5 65t-70.5 27q-23 0 -41.5 -8t-31 -21t-19.5 -29.5t-7 -33.5q0 -38 24.5 -66t69.5 -28q23 0 41.5 8t31.5 21.5t20 30.5t7 34zM170 595q0 -71 -41 -71q-42 0 -42 70q0 71 40 71q43 0 43 -70z" />
    <glyph glyph-name="hungarumlaut" unicode="&#x2dd;" horiz-adv-x="327" 
d="M162 634q14 20 11 40.5t-20 31.5t-37 3.5t-31 -27.5q-15 -26 -29.5 -71.5t-30.5 -93.5l14 -8q35 34 70.5 67.5t52.5 57.5zM302 632q14 20 12.5 40.5t-18.5 32.5q-17 11 -36.5 4.5t-31.5 -26.5q-17 -26 -33.5 -71.5t-33.5 -93.5l13 -9l38 34t36 33t31 30t23 26z" />
    <glyph glyph-name="ogonek" unicode="&#x2db;" horiz-adv-x="269" 
d="M214 33l-9 12q-95 -49 -146.5 -97.5t-51.5 -105.5q0 -42 28.5 -71.5t77.5 -29.5q34 0 59 15.5t37 39.5l-9 9q-7 -6 -20 -11.5t-28 -5.5q-33 0 -52 18t-19 50q0 24 9.5 46t27 43t42 42.5t54.5 45.5z" />
    <glyph glyph-name="caron" unicode="&#x2c7;" horiz-adv-x="309" 
d="M155 618l-121 87l-14 -11l122 -180h18l128 180l-13 11z" />
    <glyph glyph-name="dotlessi" unicode="&#x131;" horiz-adv-x="280" 
d="M92 35l-66 -21v-14h236v14l-63 21v431l-4 3l-165 -39v-10l62 -45v-340z" />
    <glyph glyph-name="fi" unicode="&#xfb01;" horiz-adv-x="592" 
d="M211 399h194v-364l-63 -21v-14h232v14l-63 21v431l-4 3l-84 -20h-212v55q0 98 32 146t99 59q2 -60 26 -89.5t56 -29.5q26 0 42.5 16.5t16.5 42.5q0 15 -7 31t-23 29.5t-43 22.5t-66 9q-42 0 -79.5 -13t-63.5 -33q-48 -35 -72.5 -85.5t-24.5 -121.5v-36l-90 -36v-17h90
v-364l-63 -21v-14h235v14l-65 21v364z" />
    <glyph glyph-name="fl" unicode="&#xfb02;" horiz-adv-x="591" 
d="M511 35v704l-4 3l-72 -20q-16 8 -38.5 13.5t-52.5 5.5q-42 0 -79.5 -13t-63.5 -33q-48 -35 -72.5 -85.5t-24.5 -121.5v-36l-90 -36v-17h90v-364l-63 -21v-14h235v14l-65 21v364h194v-364l-67 -21v-14h236v14zM405 449h-194v55q0 98 32 146t99 59q2 -51 19.5 -79.5
t43.5 -36.5v-144z" />
    <glyph glyph-name="exclam" unicode="!" horiz-adv-x="267" 
d="M198 576q0 36 -16.5 56t-49.5 20q-32 0 -48.5 -20t-16.5 -56q0 -23 5 -65t13 -95.5t16.5 -114t16.5 -118.5h29q7 58 16 118.5t16.5 114t13 95.5t5.5 65zM198 51q0 27 -19.5 46t-46.5 19t-46.5 -19t-19.5 -46t19.5 -46.5t46.5 -19.5t46.5 19.5t19.5 46.5z" />
    <glyph glyph-name="quotedbl" unicode="&#x22;" horiz-adv-x="314" 
d="M292 613q0 18 -12.5 28.5t-27.5 10.5q-13 0 -24 -9t-17 -24q-6 -17 -11.5 -43t-12.5 -59l-14 -76l14 -6l43 63q22 34 35 54t21 36q6 13 6 25zM163 613q0 18 -12.5 28.5t-27.5 10.5q-13 0 -24.5 -9t-16.5 -24q-6 -17 -12 -43t-12 -59l-14 -76l13 -6l44 63q22 34 35 54
t21 36q6 13 6 25z" />
    <glyph glyph-name="numbersign" unicode="#" horiz-adv-x="582" 
d="M537 368v40h-110l43 146l-41 13q0 -1 -4.5 -16.5t-11 -39.5t-13 -47t-11.5 -39.5l-5 -16.5h-128l44 146l-42 13l-44 -159h-138v-40h127l-16 -57l-3.5 -12t-7.5 -26t-8 -26l-4 -12h-119v-40h108l-41 -137l42 -13l41 150h128l-40 -137l42 -13l41 150h140v40h-129l17 64
l21 69h122zM373 368l-3.5 -15t-7 -27.5t-4.5 -14.5l-23 -76h-130l5 16.5t8.5 31t4.5 16.5l21 69h129z" />
    <glyph glyph-name="dollar" unicode="$" horiz-adv-x="542" 
d="M483 187q0 45 -17.5 75t-45 51t-61.5 35t-67 28l17 208q64 -29 123 -144l20 3l-7 152q-25 12 -59.5 20.5t-72.5 10.5l1 11t2 23.5t2 23l1 10.5l-38 5l-5 -71q-42 -1 -80 -15t-66.5 -38.5t-45 -59t-16.5 -76.5q0 -44 16.5 -73.5t42.5 -50t59 -35t65 -27.5q0 -2 -2 -24
t-4.5 -56.5t-5.5 -67.5t-5 -56.5l-2 -23.5q-42 14 -83 56t-73 119l-20 -2l8 -180q35 -14 78 -22t87 -10l-1 -13t-2.5 -28t-2.5 -27.5l-1 -12.5l37 -4l6 84q47 2 87 17t69 41t45.5 62.5t16.5 81.5zM274 593l-1.5 -21t-3 -50t-3.5 -60t-3.5 -50.5t-1.5 -21.5q-38 17 -65 42
t-27 68q0 49 29.5 73.5t75.5 19.5zM383 127q0 -51 -30 -81t-86 -28l14 223q21 -9 40 -19.5t32.5 -24t21.5 -30.5t8 -40z" />
    <glyph glyph-name="percent" unicode="%" horiz-adv-x="746" 
d="M362 460q0 36 -10.5 66.5t-30.5 53t-50 35t-69 12.5q-40 0 -71.5 -13.5t-53.5 -37t-34 -54t-12 -64.5q0 -36 10.5 -67t31 -53.5t50.5 -35t69 -12.5q40 0 71.5 14t53.5 37t33.5 54t11.5 65zM120 -8l29 -22l238 327l239 321l-30 22l-237 -326zM715 154q0 36 -10.5 66.5
t-30.5 53t-50 35t-69 12.5q-40 0 -72 -13.5t-54 -37t-33.5 -54t-11.5 -64.5q0 -36 10.5 -67t31 -53.5t50.5 -35t69 -12.5q40 0 71.5 14t53.5 37t33.5 54t11.5 65zM272 460q0 -76 -18 -112t-56 -36q-35 0 -56 35t-21 110t19.5 111.5t54.5 36.5q37 0 57 -35.5t20 -109.5z
M474 151q0 75 19.5 111.5t54.5 36.5q37 0 57 -35.5t20 -109.5q0 -76 -18.5 -112t-55.5 -36q-35 0 -56 35t-21 110z" />
    <glyph glyph-name="ampersand" unicode="&#x26;" horiz-adv-x="689" 
d="M680 347h-198v-12l57 -28l-79 -152l-141 191l29 17q59 35 86.5 68.5t27.5 71.5q0 22 -9.5 44t-28.5 40t-48.5 29.5t-68.5 11.5q-38 0 -70.5 -11t-56.5 -31t-38 -47.5t-14 -60.5q0 -29 14.5 -63.5t45.5 -71.5l-29 -14q-26 -12 -50 -29t-42 -39t-29 -49t-11 -58
q0 -37 15 -68t41 -53.5t61 -35t75 -12.5q58 0 98.5 23.5t78.5 59.5q32 -41 67.5 -62t76.5 -21q37 0 66.5 11.5t56.5 31.5l-3 14q-11 -2 -20.5 -2.5t-25.5 -0.5q-35 0 -64 19.5t-68 69.5l135 180l63 25v14zM367 509q0 -37 -14.5 -73.5t-47.5 -71.5l-33 46q-25 35 -36 58.5
t-11 48.5q0 38 18.5 61t49.5 23q33 0 53.5 -25t20.5 -67zM381 85q-20 -10 -46 -16.5t-55 -6.5q-66 0 -105.5 36t-39.5 91q0 38 15 68.5t38 53.5l13 13z" />
    <glyph glyph-name="quotesingle" unicode="'" horiz-adv-x="185" 
d="M163 613q0 18 -12.5 28.5t-27.5 10.5q-13 0 -24.5 -9t-16.5 -24q-6 -17 -12 -43t-12 -59l-14 -76l13 -6l44 63q22 34 35 54t21 36q6 13 6 25z" />
    <glyph glyph-name="parenleft" unicode="(" horiz-adv-x="352" 
d="M150 282q0 78 15.5 147.5t44.5 126.5t71 99.5t95 66.5l-7 19q-61 -21 -118 -62t-101 -99.5t-70.5 -133.5t-26.5 -164t26.5 -164t70.5 -133.5t101 -99.5t118 -61l7 19q-53 23 -95 65.5t-71 100t-44.5 127t-15.5 146.5z" />
    <glyph glyph-name="parenright" unicode=")" horiz-adv-x="353" 
d="M300 282q0 89 -26.5 164t-70.5 133.5t-101 99.5t-118 62l-7 -19q53 -24 94.5 -66.5t70.5 -99.5t44.5 -126.5t15.5 -147.5q0 -77 -15.5 -146.5t-44.5 -127t-70.5 -100t-94.5 -65.5l7 -19q61 20 118 61t101 99.5t70.5 133.5t26.5 164z" />
    <glyph glyph-name="asterisk" unicode="*" horiz-adv-x="340" 
d="M312 419q-2 13 -9 25t-23 21q-15 9 -34.5 14.5t-47.5 10.5v5q28 5 47.5 11t34.5 14q16 9 23 21t9 25l-7 12q-26 13 -57 -4q-14 -9 -29 -22.5t-33 -36.5l-4 3q10 26 15 46t5 37q0 19 -7 31t-18 20h-14q-11 -8 -17.5 -20t-6.5 -31q0 -32 19 -83l-4 -3q-18 23 -32.5 36.5
t-30.5 22.5q-15 9 -29.5 9.5t-26.5 -5.5l-6 -12q1 -13 8 -25t23 -21q15 -8 34.5 -14t47.5 -11v-5q-28 -5 -47.5 -10.5t-34.5 -14.5q-16 -9 -23 -21t-8 -25l6 -12q12 -6 26.5 -5.5t29.5 9.5q16 9 30.5 23t32.5 36l4 -3q-19 -51 -19 -83q0 -35 24 -51h14q11 8 18 20t7 31
q0 17 -5 37t-15 46l4 3q34 -42 62 -59q31 -17 58 -4z" />
    <glyph glyph-name="plus" unicode="+" horiz-adv-x="505" 
d="M464 281v51h-185v184h-52v-184h-186v-51h186v-187h52v187h185z" />
    <glyph glyph-name="comma" unicode="," horiz-adv-x="232" 
d="M191 25q0 40 -20 65t-55 25q-28 0 -47 -20t-19 -47q0 -23 15 -39t38 -16h8t9 2l18 5l2 -2q-7 -24 -26 -52t-64 -67l10 -13q72 33 101.5 75t29.5 84z" />
    <glyph glyph-name="hyphen" unicode="-" horiz-adv-x="330" 
d="M287 203v69h-243v-69h243z" />
    <glyph glyph-name="period" unicode="." horiz-adv-x="209" 
d="M171 50q0 27 -19 46t-47 19q-27 0 -46.5 -19t-19.5 -46t19.5 -46.5t46.5 -19.5q28 0 47 19.5t19 46.5z" />
    <glyph glyph-name="slash" unicode="/" horiz-adv-x="371" 
d="M425 725l-36 16l-199 -469l-206 -466l36 -17l200 469z" />
    <glyph glyph-name="zero" unicode="0" horiz-adv-x="566" 
d="M531 306q0 68 -15 126.5t-45 102t-76 68.5t-109 25q-60 0 -107 -25t-79 -68.5t-49 -102t-17 -126.5t14.5 -126.5t45 -101.5t76.5 -68t109 -25q60 0 106.5 25t79 68t49.5 101.5t17 126.5zM407 306q0 -78 -9.5 -133.5t-25.5 -91t-37 -52t-44 -16.5q-27 0 -51 13t-42 46
t-29 89.5t-11 144.5t9.5 144.5t25.5 89.5t37 46t44 13q26 0 50 -16.5t42.5 -51.5t29.5 -91t11 -134z" />
    <glyph glyph-name="one" unicode="1" horiz-adv-x="387" 
d="M255 55v563l-5 3l-213 -33v-12l109 -47v-474l-108 -39v-16h325v16z" />
    <glyph glyph-name="two" unicode="2" horiz-adv-x="509" 
d="M317 414q0 -47 -24 -98t-76 -111q-35 -40 -85.5 -86.5t-117.5 -98.5l5 -20h410l36 183l-11 3l-79 -90h-221l-2 5q148 102 215 187t67 157q0 37 -11.5 70.5t-35 58.5t-58 39.5t-79.5 14.5q-62 0 -115 -37.5t-85 -103.5l9 -11q35 32 70 47.5t74 15.5q54 0 84 -34t30 -91z
" />
    <glyph glyph-name="three" unicode="3" horiz-adv-x="489" 
d="M440 176q0 28 -8.5 54.5t-26.5 49t-46.5 40t-69.5 27.5v7q127 51 127 148q0 24 -9.5 46.5t-28.5 40t-48.5 28.5t-69.5 11q-60 0 -113.5 -33.5t-90.5 -85.5l9 -11q38 21 71.5 32.5t70.5 11.5q51 0 78 -23.5t27 -58.5q0 -20 -8 -39.5t-28.5 -38.5t-55 -38t-88.5 -37v-12
q58 -6 97 -22t63 -38.5t34 -49t10 -54.5q0 -26 -8 -47t-22.5 -36t-33.5 -23.5t-41 -8.5q-40 0 -70 25q5 24 3 45t-10 36.5t-23 25t-37 9.5q-26 0 -45 -18t-19 -48q0 -45 51 -75.5t139 -30.5q45 0 85 14t70 39t47.5 60.5t17.5 77.5z" />
    <glyph glyph-name="four" unicode="4" horiz-adv-x="540" 
d="M501 176v77h-108v368l-15 6l-355 -433l8 -18h252v-121l-106 -39v-16h320v16l-104 39v121h108zM283 253h-173l171 210h2v-210z" />
    <glyph glyph-name="five" unicode="5" horiz-adv-x="499" 
d="M450 199q0 42 -14 77.5t-43.5 60.5t-73.5 39t-104 14q-24 0 -45.5 -2t-45.5 -5l-4 2l15 127h278l18 142l-13 4l-39 -46h-271l-35 -326l11 -4q26 8 49 11.5t47 3.5q40 0 71 -11t52 -30t32 -45.5t11 -57.5q0 -34 -9 -59.5t-24 -43t-34.5 -26t-39.5 -8.5q-41 0 -68 25
q5 24 3 45t-10 36.5t-23 25t-36 9.5q-26 0 -45.5 -18t-19.5 -48q0 -22 13 -41.5t37 -33.5t58 -22.5t76 -8.5q49 0 90.5 16.5t71.5 45.5t47 68t17 84z" />
    <glyph glyph-name="six" unicode="6" horiz-adv-x="528" 
d="M487 215q0 35 -12 68t-35.5 59t-57.5 41.5t-79 15.5q-32 0 -63.5 -10t-57.5 -28l-4 1q17 46 39 83.5t57 71.5q32 31 73 56.5t88 45.5l-5 20q-83 -19 -147.5 -50t-120.5 -85q-63 -60 -92 -133.5t-29 -148.5q0 -61 18.5 -105.5t49.5 -74t71.5 -43.5t84.5 -14q51 0 92 18
t70 49t44.5 73t15.5 90zM377 172q0 -72 -24.5 -115.5t-75.5 -43.5q-29 0 -52 17.5t-38.5 46t-24 65.5t-8.5 76q0 31 4 61t11 50q20 10 37 14t40 4q35 0 60 -13.5t40.5 -36.5t23 -55.5t7.5 -69.5z" />
    <glyph glyph-name="seven" unicode="7" horiz-adv-x="479" 
d="M383 511l-159 -282l-146 -244h103l286 618l-6 9h-357l-22 29l-10 -4l-27 -182l10 -3l51 59h277z" />
    <glyph glyph-name="eight" unicode="8" horiz-adv-x="502" 
d="M442 487q0 27 -11.5 52t-34 45t-57 32t-79.5 12q-41 0 -76.5 -12.5t-61.5 -34.5t-41.5 -52.5t-15.5 -66.5q0 -57 29.5 -97.5t86.5 -73.5q-60 -23 -96 -64.5t-36 -95.5q0 -30 13 -56.5t38 -46.5t61.5 -31.5t83.5 -11.5q48 0 87 13.5t67 37.5t43 56.5t15 70.5
q0 54 -35 95.5t-109 81.5q67 28 98 65t31 82zM166 504q0 46 25.5 70.5t64.5 24.5q22 0 39.5 -9t29 -24t17.5 -34.5t6 -41.5q0 -39 -13.5 -71t-43.5 -67q-62 35 -93.5 70t-31.5 82zM350 115q0 -45 -24.5 -73.5t-63.5 -28.5q-27 0 -48.5 10.5t-36.5 28.5t-22.5 42t-7.5 51
q0 43 14.5 75t38.5 59q78 -36 114 -77.5t36 -86.5z" />
    <glyph glyph-name="nine" unicode="9" horiz-adv-x="525" 
d="M484 391q0 56 -16.5 100t-46 74.5t-70.5 46.5t-90 16q-51 0 -92 -18t-70 -48.5t-44.5 -71t-15.5 -85.5q0 -41 14.5 -74.5t40.5 -57.5t61.5 -37t77.5 -13q32 0 61 10t52 28l4 -1q-17 -46 -40.5 -88.5t-58.5 -76.5q-63 -62 -169 -102l5 -19q89 18 154.5 50t121.5 85
q63 60 92 133t29 149zM370 395q0 -63 -12 -102q-20 -10 -35 -14t-37 -4q-72 0 -104.5 45.5t-32.5 120.5q0 72 27 115t78 43q27 0 48.5 -16t36.5 -43.5t23 -65t8 -79.5z" />
    <glyph glyph-name="colon" unicode=":" horiz-adv-x="209" 
d="M170 351q0 27 -19 46t-46 19t-46.5 -19t-19.5 -46t19.5 -46t46.5 -19t46 19t19 46zM170 50q0 27 -19 46t-46 19t-46.5 -19t-19.5 -46t19.5 -46.5t46.5 -19.5t46 19.5t19 46.5z" />
    <glyph glyph-name="semicolon" unicode=";" horiz-adv-x="232" 
d="M190 351q0 27 -19 46t-46 19q-28 0 -47 -19t-19 -46t19 -46t47 -19q27 0 46 19t19 46zM191 25q0 40 -20 65t-55 25q-29 0 -47.5 -20t-18.5 -47q0 -23 14.5 -39t37.5 -16h9t8 2l19 5l2 -2q-7 -24 -26 -52t-65 -67l11 -13q72 33 101.5 75t29.5 84z" />
    <glyph glyph-name="less" unicode="&#x3c;" horiz-adv-x="505" 
d="M427 161l-288 145l288 146l-11 50l-343 -179v-33l343 -177z" />
    <glyph glyph-name="equal" unicode="=" horiz-adv-x="505" 
d="M464 420h-423v-50h423v50zM464 191v51h-423v-51h423z" />
    <glyph glyph-name="greater" unicode="&#x3e;" horiz-adv-x="505" 
d="M78 452l288 -144l-288 -147l11 -49l343 179v32l-343 178z" />
    <glyph glyph-name="question" unicode="?" horiz-adv-x="411" 
d="M383 494q0 33 -13.5 62t-37.5 50t-58 33.5t-75 12.5q-35 0 -66 -7.5t-54.5 -22t-37 -34.5t-13.5 -44q0 -29 19.5 -48t45.5 -19q28 0 45 18.5t17 47.5q0 28 -16 58q24 21 60 21q41 0 65.5 -25.5t24.5 -63.5q0 -40 -22 -66.5t-68 -53.5q-57 -34 -85 -65.5t-28 -74.5
q0 -45 33.5 -71.5t82.5 -26.5q26 0 48.5 8t36.5 21l-4 10q-11 -2 -22.5 -3.5t-27.5 -1.5q-25 0 -41 14t-16 36q0 24 20 42.5t71 44.5q59 30 87.5 65t28.5 83zM251 51q0 27 -19.5 46t-46.5 19t-46 -19t-19 -46t19 -46.5t46 -19.5t46.5 19.5t19.5 46.5z" />
    <glyph glyph-name="at" unicode="@" horiz-adv-x="825" 
d="M715 288q0 -51 -10 -92t-28 -70t-43 -44.5t-54 -15.5q-16 0 -25 6.5t-13.5 17t-5 24.5t2.5 28l50 283l-6 2l-43 -24q-16 9 -31 12.5t-32 3.5q-47 0 -90.5 -23t-76.5 -59t-53 -81.5t-20 -90.5q0 -62 29.5 -95.5t73.5 -33.5q34 0 60.5 17t49.5 46l4 -2q2 -32 26 -50t68 -18
q52 0 96 23t76 62t50 89.5t18 105.5q0 57 -22 111t-64.5 96t-103.5 67.5t-139 25.5q-87 0 -163.5 -32t-134 -87.5t-91 -129.5t-33.5 -158q0 -90 31.5 -158t84 -113t121 -68t142.5 -23q76 0 146 25t123 70l-8 12q-105 -55 -227 -55q-73 0 -134.5 22t-105.5 63.5t-69 101.5
t-25 136q0 80 24 146t66 113t99 73t124 26q72 0 125.5 -24t89 -64t53.5 -91t18 -106zM492 336l-36 -212q-17 -14 -31.5 -22.5t-34.5 -8.5q-32 0 -49 23.5t-17 68.5q0 33 7.5 67.5t20.5 62t31 45.5t39 18q39 0 70 -42z" />
    <glyph glyph-name="A" unicode="A" horiz-adv-x="635" 
d="M568 43l-227 600h-55l-233 -596l-70 -30v-17h193v17l-69 27l65 180h198l67 -186l-89 -21v-17h301v17zM357 259h-173l85 238h2z" />
    <glyph glyph-name="B" unicode="B" horiz-adv-x="640" 
d="M598 180q0 27 -11.5 53.5t-35.5 48t-61 36.5t-88 20v5q85 16 123.5 56.5t38.5 96.5q0 29 -13 54.5t-40.5 45t-70 30.5t-100.5 11h-309v-17l94 -21v-561l-94 -21v-17h335q59 0 102.5 14.5t72.5 39.5t43 57.5t14 68.5zM250 347v257q4 1 12.5 1.5t18 1t18.5 0.5h15
q25 0 47.5 -7.5t39 -23t26.5 -39.5t10 -57q0 -63 -32 -97t-87 -35zM459 175q0 -69 -33 -107.5t-100 -38.5q-22 0 -42 2t-34 5v280h61q75 0 111.5 -38.5t36.5 -102.5z" />
    <glyph glyph-name="C" unicode="C" horiz-adv-x="663" 
d="M615 181l-12 4l-116 -150q-20 -6 -36.5 -8.5t-38.5 -2.5q-50 0 -92 20t-72.5 59t-47.5 96t-17 130q0 78 15.5 133t41 89.5t57 50.5t64.5 16q134 0 221 -193l20 2l-11 228h-12l-39 -34q-29 15 -70.5 23t-79.5 8q-76 0 -139.5 -27t-109.5 -73.5t-72 -108.5t-26 -131
q0 -75 24.5 -135t69.5 -103t108 -66t140 -23q34 0 62 3t53 9t48 14.5t47 19.5z" />
    <glyph glyph-name="D" unicode="D" horiz-adv-x="735" 
d="M125 599v-561l-93 -21v-17h301q82 0 148 24.5t113 67t72.5 101t25.5 126.5q0 67 -23 125.5t-68 101t-111 67t-151 24.5h-307v-17zM552 319q0 -76 -15.5 -129t-43 -87t-66.5 -49.5t-86 -16.5l-91 -2v568l69 -2q50 -2 93 -17.5t74 -49t48.5 -86.5t17.5 -129z" />
    <glyph glyph-name="E" unicode="E" horiz-adv-x="647" 
d="M554 637h-522v-17l93 -21v-561l-93 -21v-17h554l23 201l-15 4l-84 -108q-12 -15 -22.5 -25.5t-23 -18t-28.5 -11.5t-37 -4l-149 -3v267h44q22 0 37.5 -4.5t27.5 -15t20.5 -27.5t16.5 -41l10 -31h18v274h-18l-10 -33q-8 -25 -16.5 -41.5t-20.5 -26.5t-27.5 -14.5
t-37.5 -4.5h-44v266l110 -2q25 0 42 -4t30 -12.5t24 -20.5t25 -29l78 -97l14 6z" />
    <glyph glyph-name="F" unicode="F" horiz-adv-x="603" 
d="M574 444l-19 193h-523v-17l93 -21v-561l-93 -21v-17h318v17l-99 21v254h47q46 0 67 -19.5t36 -68.5l10 -31h19v275h-18l-11 -33q-8 -25 -16 -42t-19.5 -27.5t-28 -15t-39.5 -4.5h-47v277l109 -2q25 0 42 -4t30.5 -12.5t24.5 -20.5t24 -29l78 -97z" />
    <glyph glyph-name="G" unicode="G" horiz-adv-x="696" 
d="M603 427l-8 228h-16l-39 -34q-29 15 -70.5 23t-79.5 8q-76 0 -139.5 -27t-109.5 -73.5t-72 -108.5t-26 -131q0 -72 23.5 -132.5t65.5 -103.5t99 -67t124 -24q52 0 93 15t76 38l80 -48l13 4v250l67 22v16h-273v-16l83 -22v-194q-18 -7 -38.5 -12t-43.5 -5q-48 0 -89.5 17
t-72.5 53t-49 92t-18 134t15.5 133t40.5 89.5t57.5 50.5t67.5 16q66 0 119 -49.5t100 -143.5z" />
    <glyph glyph-name="H" unicode="H" horiz-adv-x="800" 
d="M550 350h-300v249l87 21v17h-305v-17l93 -21v-561l-93 -21v-17h305v17l-87 21v273h300v-273l-87 -21v-17h305v17l-93 21v561l93 21v17h-305v-17l87 -21v-249z" />
    <glyph glyph-name="I" unicode="I" horiz-adv-x="400" 
d="M263 38v561l94 21v17h-315v-17l95 -21v-561l-95 -21v-17h315v17z" />
    <glyph glyph-name="J" unicode="J" horiz-adv-x="516" 
d="M402 223v376l92 21v17h-312v-17l95 -21v-418q0 -36 -4 -63.5t-16 -47.5t-33 -34t-55 -23q3 66 -18.5 103t-63.5 37q-28 0 -49.5 -20.5t-21.5 -52.5q0 -19 8.5 -36.5t26.5 -31t46.5 -22t69.5 -8.5q61 0 108 18.5t73 45.5q31 34 42.5 74.5t11.5 102.5z" />
    <glyph glyph-name="K" unicode="K" horiz-adv-x="704" 
d="M392 373l198 211l88 36v17h-236v-17l72 -38l-199 -241h-65v258l87 21v17h-305v-17l93 -21v-561l-93 -21v-17h305v17l-87 21v263h55l179 -259l-57 -25v-17h281v17l-78 32z" />
    <glyph glyph-name="L" unicode="L" horiz-adv-x="609" 
d="M580 206l-13 4l-86 -113q-11 -15 -22 -26t-23.5 -18.5t-28.5 -11.5t-37 -4l-119 -2v564l93 21v17h-312v-17l93 -21v-561l-93 -21v-17h523z" />
    <glyph glyph-name="M" unicode="M" horiz-adv-x="912" 
d="M787 38v561l93 21v17h-240l-37 -103l-137 -358h-5l-140 358l-39 103h-241v-17l83 -23v-550l-83 -30v-17h203v17l-83 30v530h7l236 -577h26l225 577h7v-539l-87 -21v-17h305v17z" />
    <glyph glyph-name="N" unicode="N" horiz-adv-x="745" 
d="M125 49l-82 -32v-17h202v17l-82 32v472h7l337 -425l78 -102h43v594l82 32v17h-203v-17l82 -32v-385h-6l-261 332l-78 102h-198v-17l79 -30v-541z" />
    <glyph glyph-name="O" unicode="O" horiz-adv-x="719" 
d="M676 319q0 67 -19.5 127.5t-58.5 106.5t-98 72.5t-138 26.5q-75 0 -134 -26.5t-100.5 -72.5t-63 -106.5t-21.5 -127.5q0 -68 19.5 -128.5t58.5 -106.5t98 -72.5t137 -26.5q75 0 134.5 26.5t100.5 72.5t63 106.5t22 128.5zM536 319q0 -77 -13 -134t-36 -95.5t-53.5 -57.5
t-64.5 -19q-38 0 -71.5 15.5t-59.5 51.5t-41 94.5t-15 144.5t13.5 144.5t36 94t53 51t65.5 15.5q37 0 71 -19t59.5 -57t40.5 -95.5t15 -133.5z" />
    <glyph glyph-name="P" unicode="P" horiz-adv-x="612" 
d="M578 456q0 37 -13.5 69.5t-42 57.5t-73 39.5t-106.5 14.5h-311v-17l93 -21v-561l-93 -21v-17h317v17l-99 21v238q24 -4 52 -6.5t53 -2.5q54 0 96 16t70 42.5t42.5 60.5t14.5 70zM445 454q0 -72 -33 -110t-97 -40h-16h-19t-18.5 0.5t-11.5 1.5v297q4 1 13 1.5t19 0.5h20
h14q63 -1 96 -41.5t33 -109.5z" />
    <glyph glyph-name="Q" unicode="Q" horiz-adv-x="719" 
d="M676 319q0 67 -19.5 127.5t-58.5 106.5t-98 72.5t-138 26.5q-75 0 -134 -26.5t-100.5 -72.5t-63 -106.5t-21.5 -127.5q0 -62 16.5 -118t49 -100.5t81 -74t113.5 -38.5l29 -52q23 -42 37.5 -62.5t29.5 -31.5q25 -19 61 -25.5t90 -6.5h96l3 15q-32 6 -61.5 17t-56.5 31
q-26 17 -51 49t-49 71q58 12 103.5 42.5t77 74t48 97t16.5 112.5zM536 319q0 -77 -13 -134t-36 -95.5t-53.5 -57.5t-64.5 -19q-38 0 -71.5 15.5t-59.5 51.5t-41 94.5t-15 144.5t13.5 144.5t36 94t53 51t65.5 15.5q37 0 71 -19t59.5 -57t40.5 -95.5t15 -133.5z" />
    <glyph glyph-name="R" unicode="R" horiz-adv-x="671" 
d="M590 478q0 33 -14.5 62t-42.5 50.5t-70 34t-97 12.5h-334v-17l93 -21v-561l-93 -21v-17h311v17l-93 21v254h25q21 0 37 -3t29.5 -11t24.5 -22.5t22 -37.5l48 -109q13 -30 24 -51t25 -33.5t33.5 -18.5t48.5 -6h118v17q-24 5 -39.5 14t-33.5 26q-20 20 -37.5 55t-37.5 83
q-16 41 -46.5 72t-85.5 42v5q94 17 139.5 62t45.5 102zM457 464q0 -34 -11 -60t-30.5 -43.5t-45 -27t-54.5 -9.5l-66 -1v280q4 1 12.5 1.5t18.5 0.5h20h15q29 0 54.5 -9.5t45 -27t30.5 -44t11 -60.5z" />
    <glyph glyph-name="S" unicode="S" horiz-adv-x="535" 
d="M489 195q0 56 -29 95.5t-90 68.5q-28 14 -57.5 25t-55.5 23q-53 23 -72 51t-19 63q0 45 26 71t69 26q97 0 179 -164l20 3l-17 196h-17l-39 -34q-25 14 -52 23.5t-65 9.5t-74.5 -13t-65.5 -38t-46.5 -60t-17.5 -80q0 -110 107 -163q23 -11 49.5 -21t50.5 -20
q35 -15 58 -28t36 -28t18 -32.5t5 -39.5q0 -48 -30 -79t-84 -31q-26 0 -52.5 9.5t-53 31.5t-51.5 58.5t-49 90.5l-21 -2l12 -222h18l39 35q29 -15 68 -25t84 -10q40 0 79.5 14t70.5 41t50 66t19 89z" />
    <glyph glyph-name="T" unicode="T" horiz-adv-x="673" 
d="M651 435l-32 202h-563l-31 -202l16 -5l76 100q16 21 29 34.5t26 22t27 12t33 4.5h45v-565l-98 -21v-17h322v17l-98 21v565h39q19 -1 33.5 -4.5t27 -12t25.5 -22t30 -34.5l76 -100z" />
    <glyph glyph-name="U" unicode="U" horiz-adv-x="725" 
d="M583 590v-367q0 -81 -41 -132.5t-124 -51.5q-89 0 -133 41.5t-44 134.5v384l93 21v17h-312v-17l93 -21v-384q0 -118 69 -174.5t193 -56.5q53 0 98 15.5t77.5 45t50.5 71t18 92.5v382l76 30v17h-189v-17z" />
    <glyph glyph-name="V" unicode="V" horiz-adv-x="671" 
d="M605 589l67 31v17h-190v-17l69 -34l-164 -439l-169 452l89 21v17h-304v-17l83 -26l241 -600h36z" />
    <glyph glyph-name="W" unicode="W" horiz-adv-x="946" 
d="M567 599l83 21v17h-282v-17l71 -26l25 -79l-126 -354h-2l-119 438l81 21v17h-297v-17l84 -26l189 -600h35l174 460h2l162 -460h34l199 595l67 31v17h-190v-17l69 -34l-121 -424h-2z" />
    <glyph glyph-name="X" unicode="X" horiz-adv-x="709" 
d="M592 593l84 27v17h-223v-17l69 -26l-140 -208l-130 215l79 19v17h-303v-17l80 -23l199 -301l-194 -252l-82 -27v-17h221v17l-68 26l146 220l15 -23.5t35.5 -56t42 -67t35 -56t14.5 -23.5l-80 -20v-17h303v17l-79 23l-15.5 23t-39 57.5t-50.5 75t-50.5 75t-39 57.5
l-15.5 23l14 18t34.5 45t44.5 58.5t44.5 58t34.5 44.5z" />
    <glyph glyph-name="Y" unicode="Y" horiz-adv-x="635" 
d="M575 590l73 30v17h-209v-17l67 -30l-139 -261l-145 267l80 24v17h-305v-17l82 -29l187 -318v-231l-96 -25v-17h317v17l-96 25v256z" />
    <glyph glyph-name="Z" unicode="Z" horiz-adv-x="634" 
d="M592 209l-12 4l-81 -109q-12 -16 -22.5 -28t-23 -20.5t-28 -12.5t-36.5 -4l-197 -2l397 590l-4 10h-499l-20 -185l14 -6l70 81q16 19 29.5 32t27 21.5t29.5 13t37 4.5l158 1l-399 -589l4 -10h535z" />
    <glyph glyph-name="bracketleft" unicode="[" horiz-adv-x="313" 
d="M361 709v32h-266v-917h266v32h-169v853h169z" />
    <glyph glyph-name="backslash" unicode="\" horiz-adv-x="371" 
d="M26 741l-36 -16l205 -467l200 -469l36 17l-205 466z" />
    <glyph glyph-name="bracketright" unicode="]" horiz-adv-x="313" 
d="M121 709v-853h-169v-32h267v917h-267v-32h169z" />
    <glyph glyph-name="asciicircum" unicode="^" horiz-adv-x="309" 
d="M155 592l120 -86l13 12l-121 180h-18l-129 -180l14 -12z" />
    <glyph glyph-name="underscore" unicode="_" horiz-adv-x="440" 
d="M440 39h-440v-39h440v39z" />
    <glyph glyph-name="grave" unicode="`" horiz-adv-x="238" 
d="M186 515q-17 50 -32.5 95.5t-30.5 71.5q-11 20 -31.5 27t-37.5 -4t-19 -32t12 -41q9 -12 22.5 -26.5t30.5 -30.5t36 -33.5t37 -34.5z" />
    <glyph glyph-name="a" unicode="a" horiz-adv-x="476" 
d="M400 329q0 137 -134 137q-35 0 -73 -9t-69 -25t-51 -38.5t-20 -50.5q0 -23 15 -40t41 -17q25 0 40.5 17t15.5 39q0 17 -9 35t-28 33q17 5 32 7.5t29 2.5q54 0 79.5 -26.5t25.5 -73.5v-84q-57 -4 -104.5 -15t-81.5 -29.5t-53 -45t-19 -60.5q0 -46 30.5 -74t83.5 -28
q42 0 77.5 19t66.5 50l4 -2q3 -38 23 -53t49 -15t58.5 8t49.5 16l-2 12q-43 -1 -59.5 11.5t-16.5 37.5v261zM294 69q-45 -24 -79 -24q-30 0 -48.5 18.5t-18.5 51.5q0 20 7.5 37t24.5 29.5t45 20t69 8.5v-141z" />
    <glyph glyph-name="b" unicode="b" horiz-adv-x="540" 
d="M504 237q0 54 -15 96.5t-40 72t-57.5 45.5t-68.5 16q-47 0 -83 -20t-62 -46l-4 2v335l-4 3l-173 -47v-10l70 -45v-629q36 -11 83 -18.5t86 -7.5q60 0 109.5 19.5t84.5 53.5t54.5 80t19.5 100zM391 212q0 -53 -8.5 -90t-23.5 -60t-34.5 -33.5t-41.5 -10.5q-29 0 -57.5 11
t-51.5 35v317q18 8 37 12t42 4q64 0 101 -45.5t37 -139.5z" />
    <glyph glyph-name="c" unicode="c" horiz-adv-x="466" 
d="M438 367q0 41 -42 70.5t-113 29.5q-56 0 -102 -19.5t-79 -53.5t-51.5 -79.5t-18.5 -97.5t17 -95t47.5 -73.5t72 -47.5t89.5 -17q51 0 97.5 22.5t86.5 63.5l-5 12q-36 -14 -69 -23t-70 -9q-34 0 -62 14t-48.5 39t-31.5 60.5t-11 77.5q0 52 12.5 88.5t34 60t50 34.5
t59.5 11q11 0 19 -0.5t17 -2.5q-10 -12 -17 -29.5t-7 -37.5q0 -25 17 -45t48 -20q26 0 43 19.5t17 47.5z" />
    <glyph glyph-name="d" unicode="d" horiz-adv-x="548" 
d="M472 55v683l-4 3l-171 -47v-10l69 -45v-181q-18 5 -36.5 7t-43.5 2q-56 0 -102.5 -19.5t-79.5 -54t-51 -81t-18 -100.5q0 -57 16 -100t42.5 -71.5t61 -42.5t71.5 -14q36 0 65 12.5t53 33.5l20 17l4 -2l8 -60l5 -2l157 37v10zM149 236q0 54 10.5 92.5t27 62.5t37.5 35
t42 11q35 0 58 -14t42 -40v-307q-17 -14 -37 -21.5t-42 -7.5q-64 0 -101 49t-37 140z" />
    <glyph glyph-name="e" unicode="e" horiz-adv-x="489" 
d="M457 260q0 44 -11.5 82t-36 65.5t-61.5 43.5t-86 16q-46 0 -87.5 -19t-73 -52.5t-50.5 -79t-19 -99.5q0 -52 16 -95t46 -73.5t72 -47.5t93 -17q48 0 97.5 23t95.5 63l-6 12q-45 -17 -79 -24.5t-72 -7.5q-42 0 -71 15t-46 42.5t-24.5 66t-7.5 86.5h311zM147 285
q4 70 34 112t74 42q45 0 66 -37t24 -108z" />
    <glyph glyph-name="f" unicode="f" horiz-adv-x="329" 
d="M336 399v50h-125v89q0 74 14.5 112t47.5 55q17 -50 40.5 -73.5t50.5 -23.5q28 0 42.5 16t14.5 43t-26 50.5t-77 23.5q-35 0 -68.5 -11t-61.5 -34q-41 -34 -62.5 -81t-21.5 -122v-41l-90 -36v-17h90v-364l-63 -21v-14h248v14l-78 21v364h125z" />
    <glyph glyph-name="g" unicode="g" horiz-adv-x="506" 
d="M428 320q0 55 -39 93l2 5l53 8q2 -21 16 -33.5t35 -12.5q22 0 36.5 16t14.5 37t-14 36.5t-43 15.5q-26 0 -54.5 -14.5t-63.5 -39.5q-49 35 -128 35q-41 0 -77 -11t-62.5 -30.5t-41.5 -48t-15 -62.5q0 -45 24.5 -77t65.5 -51v-5q-43 -35 -61 -62.5t-18 -51.5
q0 -22 15 -38.5t46 -24.5l1 -6q-54 -16 -81 -42t-27 -55q0 -21 14 -41t40.5 -35t65 -24t88.5 -9q63 0 112.5 16t83 41.5t51.5 56t18 60.5q0 54 -37 83t-116 31l-125 2q-36 1 -51 9.5t-15 28.5q0 14 4 30t12 27q36 -14 81 -14q42 0 77 11.5t60 32t39 49.5t14 64zM317 316
q0 -57 -20 -92.5t-56 -35.5q-21 0 -37 6t-26.5 21t-16 39.5t-5.5 61.5q0 69 20.5 97t57.5 28q42 0 62.5 -34.5t20.5 -90.5zM401 -82q0 -38 -37 -66.5t-104 -28.5q-78 0 -114.5 27t-36.5 70q0 22 8.5 41.5t24.5 30.5l160 -1q54 -2 76.5 -22t22.5 -51z" />
    <glyph glyph-name="h" unicode="h" horiz-adv-x="564" 
d="M385 287v-252l-56 -21v-14h226v14l-63 21v293q0 27 -7.5 52t-23 44.5t-39.5 31t-58 11.5q-41 0 -81.5 -19.5t-85.5 -61.5l-4 2v350l-4 3l-172 -47v-10l69 -45v-604l-63 -21v-14h226v14l-56 21v331q28 14 51.5 19.5t52.5 5.5q47 0 67.5 -27.5t20.5 -76.5z" />
    <glyph glyph-name="i" unicode="i" horiz-adv-x="280" 
d="M78 610q0 -29 18 -47t46 -18q31 0 51 21.5t20 50.5q0 28 -17.5 46.5t-46.5 18.5q-30 0 -50.5 -22t-20.5 -50zM92 375v-340l-66 -21v-14h236v14l-63 21v431l-4 3l-165 -39v-10z" />
    <glyph glyph-name="j" unicode="j" horiz-adv-x="273" 
d="M79 610q0 -29 18 -47t46 -18q30 0 50.5 21.5t20.5 50.5q0 28 -18 46.5t-46 18.5q-30 0 -50.5 -22t-20.5 -50zM202 23v443l-4 3l-166 -39v-10l63 -45v-439q0 -49 -9 -73.5t-35 -38.5q-5 40 -24 65t-48 25q-24 0 -40.5 -14t-16.5 -40q0 -25 22 -46.5t73 -21.5q38 0 76 13.5
t64 46.5q12 15 20.5 30t14 34.5t8 45t2.5 61.5z" />
    <glyph glyph-name="k" unicode="k" horiz-adv-x="524" 
d="M300 273l139 140l63 25v13h-200v-12l54 -34l-124 -156h-39v489l-4 3l-172 -47v-10l69 -45v-604l-65 -21v-14h222v14l-50 21v177h34l122 -177l-39 -21v-14h216v14l-52 21z" />
    <glyph glyph-name="l" unicode="l" horiz-adv-x="273" 
d="M193 35v703l-4 3l-172 -47v-10l69 -45v-604l-66 -21v-14h236v14z" />
    <glyph glyph-name="m" unicode="m" horiz-adv-x="834" 
d="M655 287v-252l-57 -21v-14h227v14l-64 21v294q0 27 -6.5 52t-20.5 44.5t-37 31.5t-57 12q-41 0 -81 -23.5t-85 -65.5l-4 2q-10 35 -37 60t-77 25q-41 0 -79.5 -20.5t-83.5 -62.5l-4 2l2 80l-4 3l-160 -39v-10l63 -45v-340l-63 -21v-14h226v14l-56 21v332q14 7 25 11.5
t21.5 7.5t21.5 4t26 1q47 0 63 -26t16 -75v-255l-56 -21v-14h221v14l-58 21v326q14 6 25 11.5t22 9.5t22.5 6.5t25.5 2.5q48 0 65.5 -27t17.5 -77z" />
    <glyph glyph-name="n" unicode="n" horiz-adv-x="560" 
d="M487 328q0 27 -6.5 52t-21 44.5t-38 31t-57.5 11.5q-83 0 -171 -84l-4 2l2 81l-4 3l-160 -39v-10l63 -45v-340l-63 -21v-14h226v14l-56 21v331q28 14 50 19.5t51 5.5q47 0 64.5 -27.5t17.5 -76.5v-252l-56 -21v-14h226v14l-63 21v293z" />
    <glyph glyph-name="o" unicode="o" horiz-adv-x="530" 
d="M497 227q0 49 -14 93t-41.5 76.5t-70 51.5t-99.5 19q-58 0 -102.5 -20.5t-75 -54t-46.5 -77t-16 -89.5q0 -50 14 -94t42.5 -77t71 -52t99.5 -19q58 0 102.5 20.5t74.5 54.5t45.5 77.5t15.5 90.5zM380 227q0 -103 -29 -159t-84 -56q-54 0 -85.5 55t-31.5 157q0 103 30 159
t83 56q56 0 86.5 -55t30.5 -157z" />
    <glyph glyph-name="p" unicode="p" horiz-adv-x="555" 
d="M520 239q0 52 -14 94t-38 72t-56.5 46t-69.5 16q-45 0 -84.5 -22t-71.5 -55l-4 2l1 74l-4 3l-159 -40v-10l62 -44v-546l-63 -24v-13h243v13l-73 24v163q19 -4 37 -6t38 -2q60 0 107.5 21t80.5 56.5t50.5 81.5t17.5 96zM406 213q0 -53 -9.5 -91t-25.5 -62t-36.5 -35.5
t-41.5 -11.5q-33 0 -57 13t-47 39v310q19 9 41 15.5t42 6.5q65 0 99.5 -47t34.5 -137z" />
    <glyph glyph-name="q" unicode="q" horiz-adv-x="534" 
d="M535 -208v13l-63 24v656l-10 3l-51 -46q-26 10 -57 17.5t-63 7.5q-61 0 -108.5 -21.5t-80.5 -57t-50 -82t-17 -95.5q0 -54 15.5 -96t42 -71.5t61.5 -44.5t75 -15q33 0 60 11.5t52 31.5l20 16l4 -2v-212l-72 -24v-13h242zM287 45q-64 0 -101 50t-37 141q0 54 10.5 92.5
t27 63t37.5 35.5t42 11q35 0 58 -13t42 -38v-319q-38 -23 -79 -23z" />
    <glyph glyph-name="r" unicode="r" horiz-adv-x="411" 
d="M400 401q0 29 -18.5 47.5t-52.5 18.5q-33 0 -70.5 -25t-66.5 -74l-4 3l3 95l-4 3l-159 -39v-10l62 -45v-340l-63 -21v-14h239v14l-69 21v311q12 21 32 35t46 16q5 -29 23 -45t42 -16q27 0 43.5 18.5t16.5 46.5z" />
    <glyph glyph-name="s" unicode="s" horiz-adv-x="403" 
d="M369 136q0 32 -11.5 54.5t-30.5 38.5t-42 27t-47 21q-21 9 -41 17.5t-35.5 19.5t-25 25t-9.5 34q0 27 18 45.5t50 18.5q35 0 62.5 -25.5t64.5 -86.5l19 5l-3 119q-10 4 -25 7t-31.5 5.5t-33 4t-31.5 1.5q-38 0 -70 -11t-54.5 -30.5t-35 -45t-12.5 -55.5q0 -31 11.5 -53
t30 -38t41.5 -27.5t47 -21.5q21 -9 41 -17.5t35.5 -19t24.5 -25t9 -33.5q0 -35 -20.5 -55.5t-55.5 -20.5q-40 0 -74 30t-74 101l-20 -2l1 -132q35 -14 70.5 -20.5t77.5 -6.5q36 0 68.5 10.5t57 30.5t39 48t14.5 63z" />
    <glyph glyph-name="t" unicode="t" horiz-adv-x="347" 
d="M346 33l-1 14q-14 -1 -28.5 -1.5t-26.5 -0.5q-25 0 -42.5 3.5t-30.5 12.5q-15 11 -20.5 29.5t-5.5 48.5v259h152v52h-152v130h-15l-73 -95l-92 -73v-14h74v-299q0 -54 22.5 -82.5t81.5 -28.5q20 0 41.5 3.5t42.5 10t39.5 14.5t33.5 17z" />
    <glyph glyph-name="u" unicode="u" horiz-adv-x="551" 
d="M476 61v405l-4 3l-164 -39v-10l61 -37v-299q-28 -13 -49.5 -18.5t-50.5 -5.5q-47 0 -65 27t-18 77v302l-4 3l-164 -39v-10l61 -37v-260q0 -27 6.5 -52t21.5 -44.5t38.5 -31t57.5 -11.5q81 0 170 84l4 -3l-2 -79l4 -2l160 40v10z" />
    <glyph glyph-name="v" unicode="v" horiz-adv-x="499" 
d="M178 414l65 24v13h-245v-13l61 -24l179 -425h30l175 416l68 33v13h-175v-13l58 -31l-53 -155l-49 -127h-4z" />
    <glyph glyph-name="w" unicode="w" horiz-adv-x="720" 
d="M443 414l61 24v13h-228v-13l51 -24l5 -14t11 -31.5t10.5 -31.5l4.5 -14l-9 -20t-22 -48t-26 -58t-21.5 -48.5t-9.5 -20.5h-5l-91 286l55 24v13h-234v-13l60 -24l158 -425h26l137 286l99 -286h26l172 416l69 33v13h-178v-13l57 -31l-95 -276h-5z" />
    <glyph glyph-name="x" unicode="x" horiz-adv-x="517" 
d="M282 279l-85 138l58 21v13h-245v-13l59 -21q1 -2 15 -22t36.5 -52.5t43.5 -63t36 -53l15 -22.5l-132 -162l-66 -28v-14h174v14l-49 24l94 136l88 -139l-60 -21v-14h247v14l-58 21l-152 214l129 160l69 29v13h-177v-13l49 -25z" />
    <glyph glyph-name="y" unicode="y" horiz-adv-x="492" 
d="M441 405l65 33v13h-172v-13l58 -31l-98 -286h-5l-108 293l64 24v13h-244v-13l61 -24l177 -427l-17 -38q-10 -21 -25.5 -45t-29.5 -40q-18 23 -35 35.5t-43 12.5q-24 0 -42 -17t-18 -40q0 -24 19 -43.5t59 -19.5q47 0 84 42t75 135z" />
    <glyph glyph-name="z" unicode="z" horiz-adv-x="468" 
d="M443 441l-6 10h-381l-10 -150l14 -6l102 123h144l-286 -407l6 -11h397l14 150l-15 6l-110 -123h-155z" />
    <glyph glyph-name="braceleft" unicode="{" horiz-adv-x="336" 
d="M239 470v110q0 34 5.5 57.5t18.5 39.5t35 25.5t54 15.5v23q-52 -4 -92 -13t-67 -28.5t-41 -52t-14 -82.5v-128q0 -37 -6 -62t-21 -41.5t-39.5 -25.5t-60.5 -13v-20q36 -4 60.5 -13t39.5 -25t21 -41t6 -62v-134q0 -51 14 -83t41 -51.5t67 -28.5t92 -13v23q-32 6 -54 15.5
t-35 25t-18.5 39t-5.5 57.5v117q0 46 -9 78t-26.5 53.5t-43.5 33.5t-60 18v2q34 6 60 18.5t43.5 33.5t26.5 53t9 79z" />
    <glyph glyph-name="bar" unicode="|" horiz-adv-x="269" 
d="M156 -241l-3 471l3 471h-43l3 -471l-3 -471h43z" />
    <glyph glyph-name="braceright" unicode="}" horiz-adv-x="336" 
d="M198 437v128q0 50 -14 82.5t-41 52t-67 28.5t-92 13v-23q32 -6 54 -15.5t35 -25.5t18.5 -39.5t5.5 -57.5v-110q0 -47 9 -79t26.5 -53t43.5 -33.5t60 -18.5v-2q-34 -6 -60 -18t-43.5 -33.5t-26.5 -53.5t-9 -78v-117q0 -34 -5.5 -57.5t-18.5 -39t-35 -25t-54 -15.5v-23
q52 4 92 13t67 28.5t41 51.5t14 83v134q0 37 6 62t21 41t39.5 25t60.5 13v20q-36 4 -60.5 13t-39.5 25.5t-21 41.5t-6 62z" />
    <glyph glyph-name="asciitilde" unicode="~" horiz-adv-x="361" 
d="M124 373q-34 0 -55.5 -25t-30.5 -81l17 -5q10 23 21.5 32t26.5 9t31 -5.5t33 -12t35 -12t37 -5.5q35 0 56.5 24.5t27.5 81.5l-17 5q-9 -23 -21 -32t-27 -9q-14 0 -30 5.5t-32.5 12t-34.5 12t-37 5.5z" />
    <glyph glyph-name="quotesinglbase" unicode="&#x201a;" horiz-adv-x="226" 
d="M182 25q0 40 -20.5 65t-55.5 25q-28 0 -46.5 -20t-18.5 -47q0 -23 14.5 -39t37.5 -16h8q4 0 9 2l19 5l2 -2q-7 -24 -26 -52t-65 -67l11 -13q72 33 101.5 75t29.5 84z" />
    <glyph glyph-name="florin" unicode="&#x192;" horiz-adv-x="495" 
d="M500 561q0 29 -27.5 48t-65.5 19q-35 0 -72.5 -14t-67.5 -43q-42 -37 -65 -84t-36 -121l-1 -12l-110 -39l-3 -17h104l-40 -280q-9 -68 -18 -104t-23 -55q-16 36 -40.5 54t-51.5 18q-26 0 -42 -16.5t-16 -38.5q0 -26 23.5 -43.5t65.5 -17.5q29 0 60 12t55 38
q21 22 37.5 47t28.5 56t21 70t16 89l25 171h119l8 50h-120l2 20q7 56 15.5 93.5t18.5 62.5t21.5 40t25.5 26q15 -44 42 -64t53 -20q29 0 43.5 16.5t14.5 38.5z" />
    <glyph glyph-name="quotedblbase" unicode="&#x201e;" horiz-adv-x="379" 
d="M342 29q0 38 -19.5 62t-52.5 24q-26 0 -44 -19t-18 -45q0 -22 14 -37.5t36 -15.5q5 0 15 2l18 6l2 -2q-7 -23 -25 -50t-61 -64l10 -12q69 32 97 72t28 79zM175 29q0 38 -19 62t-52 24q-27 0 -45 -19t-18 -45q0 -22 14 -37.5t36 -15.5q6 0 16 2l18 6l2 -2
q-7 -23 -25 -49.5t-61 -64.5l9 -12q69 32 97 72t28 79z" />
    <glyph glyph-name="ellipsis" unicode="&#x2026;" horiz-adv-x="639" 
d="M600 50q0 27 -19 46t-46 19q-28 0 -47 -19t-19 -46t19 -46.5t47 -19.5q27 0 46 19.5t19 46.5zM385 50q0 27 -19 46t-46 19t-46.5 -19t-19.5 -46t19.5 -46.5t46.5 -19.5t46 19.5t19 46.5zM171 50q0 27 -19 46t-47 19q-27 0 -46.5 -19t-19.5 -46t19.5 -46.5t46.5 -19.5
q28 0 47 19.5t19 46.5z" />
    <glyph glyph-name="dagger" unicode="&#x2020;" horiz-adv-x="449" 
d="M425 397v41l-182 -4l4 236h-45l4 -236l-182 4v-41l182 4l-4 -484h45l-4 484z" />
    <glyph glyph-name="daggerdbl" unicode="&#x2021;" horiz-adv-x="449" 
d="M425 149v41l-182 -4v215l182 -4v41l-182 -4l4 236h-45l4 -236l-182 4v-41l182 4v-215l-182 4v-41l182 4l-4 -236h45l-4 236z" />
    <glyph glyph-name="circumflex" unicode="&#x2c6;" horiz-adv-x="309" 
d="M155 592l120 -86l13 12l-121 180h-18l-129 -180l14 -12z" />
    <glyph glyph-name="perthousand" unicode="&#x2030;" horiz-adv-x="734" 
d="M701 319q0 69 -26.5 129.5t-71.5 106t-106 71.5t-130 26t-130 -26t-106 -71.5t-71.5 -106t-26.5 -129.5t26.5 -130t71.5 -106.5t106 -71.5t130 -26t130 26t106 71.5t71.5 106.5t26.5 130zM668 319q0 -63 -23.5 -118t-64.5 -96.5t-96 -65.5t-117 -24t-117 24t-96 65.5
t-64.5 96.5t-23.5 118t23.5 118t64.5 96t96 65t117 24t117 -24t96 -65t64.5 -96t23.5 -118zM516 405q0 31 -27 56.5t-83 25.5h-198v-15l46 -13v-280l-46 -13v-16h170v16l-46 13v120h8q26 0 39.5 -6.5t22.5 -29.5l22 -53q13 -34 26.5 -47t44.5 -13h64v16q-19 5 -31 18
q-9 11 -16.5 25.5t-15.5 40.5q-8 25 -26 41.5t-54 21.5v2q54 9 77 34t23 56zM435 393q0 -33 -19 -52t-50 -20l-34 -1v145h6h10q6 0 11 -0.5t7 -0.5q29 -1 49 -18.5t20 -52.5z" />
    <glyph glyph-name="guilsinglleft" unicode="&#x2039;" horiz-adv-x="300" 
d="M131 224l116 175l-20 19l-197 -189v-10l197 -189l20 18z" />
    <glyph glyph-name="OE" unicode="&#x152;" horiz-adv-x="1006" 
d="M968 201l-14 4l-84 -108q-12 -15 -22.5 -25.5t-23 -18t-28.5 -11.5t-37 -4l-149 -3v267h43q22 0 38 -4.5t27.5 -15t20.5 -27.5t17 -41l10 -31h18v274h-18l-10 -33q-8 -25 -16.5 -41.5t-20.5 -26.5t-28 -14.5t-38 -4.5h-43v266l110 -2q24 0 41 -4t30.5 -12.5t24.5 -20.5
t25 -29l78 -97l14 6l-19 193h-512q-82 0 -148 -24.5t-113 -67t-72.5 -101t-25.5 -125.5q0 -68 23 -126.5t68 -101t110.5 -67t150.5 -24.5h550zM183 319q0 76 15 129t43 87t66.5 49.5t85.5 16.5l91 2v-568l-68 1q-50 1 -93 16.5t-74 49.5t-48.5 87.5t-17.5 129.5z" />
    <glyph glyph-name="quoteleft" unicode="&#x2018;" horiz-adv-x="219" 
d="M178 477q0 24 -15 40t-38 16h-8t-9 -2l-18 -5l-2 1q7 24 26 52t64 67l-10 13q-72 -33 -101.5 -75t-29.5 -83q0 -40 20 -65t55 -25q29 0 47.5 19.5t18.5 46.5z" />
    <glyph glyph-name="quoteright" unicode="&#x2019;" horiz-adv-x="219" 
d="M182 562q0 40 -20.5 65t-55.5 25q-28 0 -46.5 -20t-18.5 -47q0 -23 14.5 -39t37.5 -16h8q4 0 9 2l19 5l2 -2q-7 -23 -26 -51t-65 -67l11 -13q72 33 101.5 74.5t29.5 83.5z" />
    <glyph glyph-name="quotedblleft" unicode="&#x201c;" horiz-adv-x="378" 
d="M337 486q0 23 -14 38t-36 15q-6 0 -16 -2l-18 -5l-1 1q6 23 24 49.5t61 64.5l-10 12q-69 -32 -96.5 -72t-27.5 -79q0 -38 19 -62t52 -24q27 0 45 19t18 45zM171 486q0 23 -14 38t-36 15q-7 0 -17 -2l-18 -5l-1 1q3 12 8.5 24t15.5 26t25 29.5t37 34.5l-10 12
q-69 -32 -97 -72t-28 -79q0 -38 19.5 -62t52.5 -24q27 0 45 19t18 45z" />
    <glyph glyph-name="quotedblright" unicode="&#x201d;" horiz-adv-x="379" 
d="M342 566q0 38 -19.5 62t-52.5 24q-26 0 -44 -19t-18 -45q0 -22 14 -37.5t36 -15.5q5 0 15 2l18 6l2 -2q-7 -23 -24.5 -49.5t-61.5 -63.5l10 -13q69 32 97 72t28 79zM175 566q0 38 -19 62t-52 24q-27 0 -45 -19t-18 -45q0 -22 14 -37.5t36 -15.5q6 0 16 2l18 6l2 -2
q-7 -23 -25 -49.5t-61 -63.5l9 -13q69 32 97 72t28 79z" />
    <glyph glyph-name="bullet" unicode="&#x2022;" horiz-adv-x="470" 
d="M382 319q0 31 -11.5 58t-31.5 47t-47 31.5t-58 11.5t-58 -11.5t-47 -31.5t-31.5 -47t-11.5 -58t11.5 -58t31.5 -47.5t47 -32t58 -11.5t58 11.5t47 32t31.5 47.5t11.5 58z" />
    <glyph glyph-name="endash" unicode="&#x2013;" horiz-adv-x="536" 
d="M493 230v39h-449v-39h449z" />
    <glyph glyph-name="emdash" unicode="&#x2014;" horiz-adv-x="786" 
d="M743 230v39h-699v-39h699z" />
    <glyph glyph-name="tilde" unicode="&#x2dc;" horiz-adv-x="341" 
d="M22 528l18 -6q10 25 22.5 34.5t28.5 9.5t32.5 -6t34.5 -13.5t37.5 -13.5t39.5 -6q38 0 59 27t27 89l-17 6q-10 -25 -23 -35t-29 -10q-15 0 -31.5 6t-33.5 13t-35.5 13t-38.5 6q-39 0 -60.5 -27t-30.5 -87z" />
    <glyph glyph-name="trademark" unicode="&#x2122;" horiz-adv-x="528" 
d="M475 617l26 9v11h-87l-10 -31l-33 -89h-2l-34 89l-11 31h-87v-11l24 -9v-141l-24 -12v-10h67v10l-25 12v137h4l64 -159h18l60 159h4v-140l-22 -9v-10h94v10l-26 9v144zM212 570l-7 67h-173l-8 -67l7 -1l25 34q8 11 14.5 15t15.5 5h10v-150l-27 -9v-10h99v10l-26 9v150h9
q9 -1 15 -5t14 -15l25 -34z" />
    <glyph glyph-name="guilsinglright" unicode="&#x203a;" horiz-adv-x="300" 
d="M270 229l-196 189l-21 -19l116 -175l-116 -176l21 -18l196 189v10z" />
    <glyph glyph-name="oe" unicode="&#x153;" horiz-adv-x="840" 
d="M497 260h311q0 45 -11.5 82.5t-36 65.5t-61.5 43.5t-86 15.5q-50 0 -93 -22.5t-73 -60.5q-26 38 -69 60.5t-106 22.5q-58 0 -102.5 -20t-75 -54t-46.5 -77.5t-16 -89.5q0 -50 14 -94t42.5 -77t71 -52t99.5 -19q60 0 104 22.5t73 58.5q28 -38 72 -59.5t102 -21.5
q48 0 97.5 23.5t95.5 62.5l-6 13q-45 -17 -79 -25t-72 -8q-42 0 -71 15t-46 42.5t-24.5 66t-7.5 86.5zM497 286q5 69 35 111.5t74 42.5t65.5 -37.5t24.5 -107.5zM380 227q0 -103 -29 -159t-85 -56q-53 0 -84.5 55t-31.5 157q0 103 30 159t83 56q56 0 86.5 -55t30.5 -157z
" />
    <glyph glyph-name="Ydieresis" unicode="&#x178;" horiz-adv-x="635" 
d="M457 728q28 0 46.5 20t18.5 46t-16 43t-42 17q-29 0 -47.5 -20t-18.5 -46t16.5 -43t42.5 -17zM276 728q28 0 46.5 20t18.5 46t-16 43t-42 17q-29 0 -47.5 -20t-18.5 -46t16.5 -43t42.5 -17zM575 590l73 30v17h-209v-17l67 -30l-139 -261l-145 267l80 24v17h-305v-17
l82 -29l187 -318v-231l-96 -25v-17h317v17l-96 25v256z" />
    <glyph glyph-name="exclamdown" unicode="&#xa1;" horiz-adv-x="267" 
d="M198 351q0 27 -19.5 46t-46.5 19t-46.5 -19t-19.5 -46t19.5 -46t46.5 -19t46.5 19t19.5 46zM117 218q-8 -59 -16.5 -119t-16.5 -113.5t-13 -96t-5 -64.5q0 -36 16.5 -56t48.5 -20t49 20t17 56q0 22 -5 64.5t-13 96t-17 113.5t-16 119h-29z" />
    <glyph glyph-name="cent" unicode="&#xa2;" horiz-adv-x="489" 
d="M271 56l10 162l17 218q37 0 58 -12q-16 -21 -21 -44t0 -43t20.5 -33t40.5 -13q27 0 44 19.5t17 51.5q0 19 -11 37.5t-31 33t-49.5 23.5t-65.5 11l5 66l-34 3l-5 -70q-50 -4 -91.5 -24.5t-72.5 -54t-48 -77t-17 -92.5q0 -48 15 -88t41 -70t62 -49t78 -24l-6 -80l35 -3
l5 82q54 0 101.5 24t87.5 64l-6 13q-35 -15 -69.5 -25.5t-71.5 -10.5q-10 0 -19.5 1t-18.5 4zM150 242q0 43 9.5 75.5t25.5 55.5t36.5 37.5t42.5 20.5l-13 -211q0 -1 -1 -15.5t-3 -38t-3.5 -45t-3 -37.5l-1.5 -16q-41 22 -65 67.5t-24 106.5z" />
    <glyph glyph-name="sterling" unicode="&#xa3;" horiz-adv-x="555" 
d="M430 333h-146q-17 31 -26.5 61t-9.5 61q0 54 24.5 90.5t69.5 49.5q8 -52 34.5 -81.5t60.5 -29.5q29 0 45 19t16 43q0 12 -6.5 26.5t-22 27t-42 20.5t-66.5 8q-44 0 -85.5 -16t-73.5 -44t-52 -66.5t-20 -82.5q0 -22 5 -42.5t16 -43.5h-112v-44h131q12 -30 12 -61
q0 -67 -38 -119q-63 -1 -93 -25t-30 -51q0 -20 13 -34t41 -14q29 0 53.5 23t38.5 58q54 -34 110.5 -57.5t101.5 -23.5q31 0 56 14.5t42.5 41.5t27.5 64.5t12 82.5l-22 2q-11 -47 -30 -71.5t-61 -24.5q-21 0 -48.5 2t-57.5 4t-60 3t-54 -2l-2 7q56 28 85 69.5t29 92.5
q0 5 -0.5 9.5t-0.5 9.5h135v44z" />
    <glyph glyph-name="currency" unicode="&#xa4;" horiz-adv-x="576" 
d="M86 340q-3 -27 -3 -54v-25h-65v-39h70q9 -59 34.5 -103t62 -74t81.5 -45t93 -15q57 0 103 24t78 62l-5 12q-31 -13 -62.5 -18.5t-65.5 -5.5q-69 0 -120 42.5t-71 120.5h242v39h-250q-3 24 -3 51q0 7 0.5 14t0.5 14h252v39h-249q7 59 24.5 100.5t41 67.5t51 37.5
t53.5 11.5q15 0 25.5 -2t21.5 -7q-15 -18 -19 -40.5t2 -42t21.5 -33t40.5 -13.5q29 0 45.5 19.5t16.5 48.5q0 20 -10 38.5t-30 32.5t-49 22.5t-66 8.5q-52 0 -98.5 -17.5t-84 -50t-64 -78.5t-39.5 -103h-74v-39h68z" />
    <glyph glyph-name="yen" unicode="&#xa5;" horiz-adv-x="642" 
d="M90 315v-40h172v-66h-172v-40h172v-127l-102 -25v-17h321v17l-103 25v127h172v40h-172v66h172v40h-163l162 247l78 33v17h-214v-17l73 -30l-136 -237l-127 243l87 24v17h-296v-17l79 -29l149 -251h-152z" />
    <glyph glyph-name="section" unicode="&#xa7;" horiz-adv-x="499" 
d="M445 159q0 102 -81.5 194.5t-229.5 177.5q15 50 50.5 79.5t79.5 29.5q23 0 44 -8.5t34 -23.5q-8 -14 -11 -27t-3 -24q0 -24 17 -41t43 -17q25 0 41.5 18t16.5 46q0 20 -11 39.5t-32 34.5t-51 24.5t-67 9.5q-47 0 -89 -19.5t-73.5 -54t-50 -82t-18.5 -102.5
q0 -102 82 -195.5t228 -178.5q-16 -48 -51 -77t-79 -29q-23 0 -43.5 8.5t-34.5 23.5q14 25 14 51q0 23 -17 40t-43 17q-25 0 -42 -17.5t-17 -45.5q0 -20 11.5 -39.5t32.5 -34.5t51 -24.5t67 -9.5q47 0 89.5 20t74 54.5t50 81.5t18.5 101zM125 469v15q0 8 2 16
q57 -56 102.5 -106.5t77.5 -98.5t49.5 -95.5t17.5 -95.5q0 -19 -3 -35q-57 56 -102.5 107.5t-77.5 100t-49 96t-17 96.5z" />
    <glyph glyph-name="dieresis" unicode="&#xa8;" horiz-adv-x="342" 
d="M256 542q28 0 46.5 20t18.5 46t-16 43t-42 17q-29 0 -47.5 -20t-18.5 -46t16.5 -43t42.5 -17zM75 542q28 0 46.5 20t18.5 46t-16 43t-42 17q-29 0 -47.5 -20t-18.5 -46t16.5 -43t42.5 -17z" />
    <glyph glyph-name="copyright" unicode="&#xa9;" horiz-adv-x="734" 
d="M701 319q0 69 -26.5 129.5t-71.5 106t-106 71.5t-130 26t-130 -26t-106 -71.5t-71.5 -106t-26.5 -129.5t26.5 -130t71.5 -106.5t106 -71.5t130 -26t130 26t106 71.5t71.5 106.5t26.5 130zM668 319q0 -63 -23.5 -118t-64.5 -96.5t-96 -65.5t-117 -24t-117 24t-96 65.5
t-64.5 96.5t-23.5 118t23.5 118t64.5 96t96 65t117 24t117 -24t96 -65t64.5 -96t23.5 -118zM280 324q0 41 7.5 69.5t20 46t29 25t33.5 7.5q32 0 59.5 -27.5t47.5 -76.5l17 1l-8 128h-13l-15 -18q-15 8 -36.5 12t-41.5 4q-41 0 -75.5 -14.5t-59 -39t-38.5 -57t-14 -69.5
q0 -81 50 -127t132 -46q36 0 61.5 5.5t51.5 16.5l12 90l-12 2l-63 -83q-9 -3 -16.5 -4t-18.5 -1q-51 0 -80.5 40.5t-29.5 115.5z" />
    <glyph glyph-name="ordfeminine" unicode="&#xaa;" horiz-adv-x="388" 
d="M57 562q0 -17 12 -30t33 -13q20 0 31.5 12.5t11.5 29.5q0 12 -7 26.5t-22 25.5q11 2 21 3t18 1q43 0 59.5 -18t16.5 -49v-60q-41 -1 -75.5 -8.5t-59 -20.5t-38 -32t-13.5 -43q0 -32 23 -52.5t63 -20.5q28 0 53.5 13t46.5 33l4 -1q4 -26 20 -35.5t36 -9.5q22 0 43 4.5
t38 11.5l-1 10q-33 1 -43.5 11.5t-10.5 28.5v177q0 48 -26 72t-74 24q-26 0 -54 -6t-51.5 -18t-39 -28.5t-15.5 -37.5zM135 405q0 29 21 46.5t75 19.5v-98q-26 -17 -49 -17q-20 0 -33.5 13t-13.5 36z" />
    <glyph glyph-name="guillemotleft" unicode="&#xab;" horiz-adv-x="477" 
d="M308 224l116 175l-20 19l-197 -189v-10l197 -189l20 18zM131 224l116 175l-20 19l-197 -189v-10l197 -189l20 18z" />
    <glyph glyph-name="logicalnot" unicode="&#xac;" horiz-adv-x="505" 
d="M464 279v55h-423v-55h423z" />
    <glyph glyph-name="registered" unicode="&#xae;" horiz-adv-x="376" 
d="M188 351q32 0 59.5 11.5t48 31.5t32 48t11.5 60t-11.5 59.5t-32 48t-48 32t-59.5 11.5t-60 -11.5t-48 -32t-31.5 -48t-11.5 -59.5t11.5 -60t31.5 -48t48 -31.5t60 -11.5zM188 367q-28 0 -52 10.5t-42 28.5t-28 42.5t-10 53.5t10 53.5t28 42.5t42 28.5t52 10.5t52 -10.5
t42 -28.5t28 -42.5t10 -53.5t-10 -53.5t-28 -42.5t-42 -28.5t-52 -10.5zM256 544q0 15 -13.5 26.5t-41.5 11.5h-92v-11l26 -7v-119l-26 -7v-10h88v10l-24 7v49h5q11 0 16.5 -3t8.5 -12l9 -23q6 -15 13 -21.5t21 -6.5h34v10q-12 1 -20 9q-7 6 -14 26q-7 23 -32 27v5
q42 7 42 39zM217 538q0 -14 -7.5 -22.5t-24.5 -8.5h-12v62l14 -1q30 0 30 -30z" />
    <glyph glyph-name="macron" unicode="&#xaf;" horiz-adv-x="320" 
d="M292 594h-264v-55h264v55z" />
    <glyph glyph-name="macron" unicode="&#x2c9;" horiz-adv-x="320" 
d="M292 594h-264v-55h264v55z" />
    <glyph glyph-name="degree" unicode="&#xb0;" horiz-adv-x="384" 
d="M346 503q0 29 -9 56t-27.5 47.5t-47 33t-66.5 12.5q-39 0 -68.5 -13t-49.5 -34.5t-30 -48.5t-10 -54q0 -29 9.5 -56t28 -48t47 -33.5t66.5 -12.5q39 0 68 13.5t49 35t30 48.5t10 54zM267 503q0 -57 -18.5 -91.5t-55.5 -34.5q-35 0 -55.5 34t-20.5 90q0 57 19.5 91.5
t54.5 34.5q36 0 56 -34t20 -90z" />
    <glyph glyph-name="plusminus" unicode="&#xb1;" 
d="M25 -200h450v1000h-450v-1000z" />
    <glyph glyph-name="acute" unicode="&#xb4;" horiz-adv-x="238" 
d="M182 705q-17 11 -37 4t-32 -27q-15 -26 -31 -72t-32 -95l12 -8q18 17 37 34.5t36 33.5t31 30.5t23 26.5q14 20 12 41t-19 32z" />
    <glyph glyph-name="mu" unicode="&#xb5;" horiz-adv-x="505" 
d="M286 306l140 143l-37 35l-137 -142l-137 142l-37 -35l140 -143l-141 -143l38 -36l137 143l137 -143l38 36z" />
    <glyph glyph-name="mu" unicode="&#x3bc;" horiz-adv-x="505" 
d="M286 306l140 143l-37 35l-137 -142l-137 142l-37 -35l140 -143l-141 -143l38 -36l137 143l137 -143l38 36z" />
    <glyph glyph-name="paragraph" unicode="&#xb6;" horiz-adv-x="724" 
d="M595 -48v690l110 19v16h-225q-101 0 -180 -27.5t-134 -77.5t-83.5 -120t-28.5 -155q0 -84 26.5 -154t79 -120.5t131.5 -78t183 -27.5h231v17zM465 644l90 -2v-690l-90 -2v694z" />
    <glyph glyph-name="periodcentered" unicode="&#xb7;" horiz-adv-x="221" 
d="M176 318q0 27 -19 46t-46 19t-46.5 -19t-19.5 -46q0 -28 19.5 -47t46.5 -19t46 19t19 47z" />
    <glyph glyph-name="cedilla" unicode="&#xb8;" horiz-adv-x="282" 
d="M176 -161q0 35 -21.5 58.5t-59.5 31.5l113 97l-16 20l-181 -156l13 -15q8 2 15 3.5t16 1.5q26 0 41 -16t15 -44t-14 -43t-35 -15q-9 0 -15 1.5t-11 3.5q12 14 12 29q0 14 -7.5 24t-23.5 10q-15 0 -24 -10t-9 -26q0 -22 21 -37.5t57 -15.5q51 0 82.5 28t31.5 70z" />
    <glyph glyph-name="ordmasculine" unicode="&#xba;" horiz-adv-x="395" 
d="M367 483q0 35 -10 65.5t-30 53.5t-51 36.5t-74 13.5t-75.5 -14t-54.5 -37.5t-33 -54t-11 -63.5q0 -35 9.5 -66t30 -54t51.5 -36.5t73 -13.5q43 0 76 14.5t55 38t33 54t11 63.5zM274 483q0 -70 -18.5 -108.5t-57.5 -38.5t-58.5 38.5t-19.5 108.5q0 69 19 108t57 39
q40 0 59 -38.5t19 -108.5z" />
    <glyph glyph-name="guillemotright" unicode="&#xbb;" horiz-adv-x="477" 
d="M447 219v10l-196 189l-21 -19l116 -175l-116 -176l21 -18zM270 219v10l-196 189l-21 -19l116 -175l-116 -176l21 -18z" />
    <glyph glyph-name="questiondown" unicode="&#xbf;" horiz-adv-x="380" 
d="M285 351q0 27 -19 46t-46 19q-28 0 -47 -19t-19 -46t19 -46t47 -19q27 0 46 19t19 46zM376 -143q0 29 -19 48t-45 19q-28 0 -45 -18.5t-17 -47.5q0 -28 16 -58q-24 -21 -60 -21q-41 0 -66 26t-25 64q0 40 22.5 66t68.5 53q57 34 85 66.5t28 75.5q0 45 -33.5 71t-82.5 26
q-26 0 -48.5 -8t-36.5 -21l3 -11q12 2 23 3.5t27 1.5q25 0 41.5 -14t16.5 -35q0 -25 -20.5 -43t-71.5 -44q-59 -30 -87.5 -65t-28.5 -84q0 -33 13.5 -61.5t38 -50t58 -34t74.5 -12.5q35 0 66 7.5t54.5 22t37 34.5t13.5 44z" />
    <glyph glyph-name="Agrave" unicode="&#xc0;" horiz-adv-x="635" 
d="M331 701q-17 50 -32.5 95.5t-30.5 71.5q-11 20 -31.5 27t-37.5 -4t-19 -32t12 -41q9 -12 22.5 -26.5t30.5 -30.5t36 -33.5t37 -34.5zM568 43l-227 600h-55l-233 -596l-70 -30v-17h193v17l-69 27l65 180h198l67 -186l-89 -21v-17h301v17zM357 259h-173l85 238h2z" />
    <glyph glyph-name="Aacute" unicode="&#xc1;" horiz-adv-x="635" 
d="M407 891q-17 11 -37 4t-32 -27q-15 -26 -31 -72t-32 -95l12 -8q18 17 37 34.5t36 33.5t31 30.5t23 26.5q14 20 12 41t-19 32zM568 43l-227 600h-55l-233 -596l-70 -30v-17h193v17l-69 27l65 180h198l67 -186l-89 -21v-17h301v17zM357 259h-173l85 238h2z" />
    <glyph glyph-name="Acircumflex" unicode="&#xc2;" horiz-adv-x="635" 
d="M312 758l120 -86l13 12l-121 180h-18l-129 -180l14 -12zM570 43l-227 600h-55l-233 -596l-70 -30v-17h193v17l-69 27l65 180h198l67 -186l-89 -21v-17h301v17zM359 259h-173l85 238h2z" />
    <glyph glyph-name="Atilde" unicode="&#xc3;" horiz-adv-x="635" 
d="M168 714l18 -6q10 25 22.5 34.5t28.5 9.5t32.5 -6t34.5 -13.5t37.5 -13.5t39.5 -6q38 0 59 27t27 89l-17 6q-10 -25 -23 -35t-29 -10q-15 0 -31.5 6t-33.5 13t-35.5 13t-38.5 6q-39 0 -60.5 -27t-30.5 -87zM568 43l-227 600h-55l-233 -596l-70 -30v-17h193v17l-69 27
l65 180h198l67 -186l-89 -21v-17h301v17zM357 259h-173l85 238h2z" />
    <glyph glyph-name="Adieresis" unicode="&#xc4;" horiz-adv-x="635" 
d="M409 728q28 0 46.5 20t18.5 46t-16 43t-42 17q-29 0 -47.5 -20t-18.5 -46t16.5 -43t42.5 -17zM228 728q28 0 46.5 20t18.5 46t-16 43t-42 17q-29 0 -47.5 -20t-18.5 -46t16.5 -43t42.5 -17zM568 43l-227 600h-55l-233 -596l-70 -30v-17h193v17l-69 27l65 180h198l67 -186
l-89 -21v-17h301v17zM357 259h-173l85 238h2z" />
    <glyph glyph-name="Aring" unicode="&#xc5;" horiz-adv-x="635" 
d="M568 43l-224 593q32 10 49.5 35t17.5 54q0 38 -24.5 65t-69.5 27q-23 0 -41.5 -8t-31.5 -21t-20 -29.5t-7 -33.5q0 -32 17 -56.5t49 -33.5l-230 -588l-70 -30v-17h193v17l-69 27l65 180h198l67 -186l-89 -21v-17h301v17zM272 724q0 71 41 71q42 0 42 -70q0 -35 -9 -53
t-31 -18q-43 0 -43 70zM269 497h2l86 -238h-173z" />
    <glyph glyph-name="AE" unicode="&#xc6;" horiz-adv-x="936" 
d="M225 251h189v-213l-93 -21v-17h554l23 201l-14 4l-85 -108q-11 -15 -22 -25.5t-23.5 -18t-28.5 -11.5t-37 -4l-149 -3v267h44q43 0 65 -19.5t37 -68.5l10 -31h18v274h-18l-10 -33q-8 -25 -16.5 -41.5t-20.5 -26.5t-27.5 -14.5t-37.5 -4.5h-44v266l110 -2q25 0 42 -4
t30 -12.5t24 -20.5t25 -29l78 -97l14 6l-19 193h-528v-17l91 -25l-371 -548l-69 -30v-17h198v17l-70 27zM414 285h-167l165 260h2v-260z" />
    <glyph glyph-name="Ccedilla" unicode="&#xc7;" horiz-adv-x="663" 
d="M183 329q0 78 15.5 133t41 89.5t57 50.5t64.5 16q134 0 221 -193l20 2l-11 228h-12l-39 -34q-29 15 -70.5 23t-79.5 8q-76 0 -139.5 -27t-109.5 -73.5t-72 -108.5t-26 -131q0 -75 24.5 -135.5t70 -103t109.5 -65.5t142 -23l-112 -95l14 -15q7 2 14 3.5t16 1.5
q26 0 41 -16t15 -44t-13.5 -43t-35.5 -15q-8 0 -14 1.5t-11 3.5q12 14 12 29q0 14 -7.5 24t-24.5 10q-14 0 -23.5 -10t-9.5 -26q0 -22 21 -37.5t58 -15.5q50 0 81.5 28t31.5 70q0 35 -21.5 58.5t-59.5 31.5l69 57q49 4 87 15.5t78 29.5l20 150l-12 4l-116 -150
q-20 -7 -37 -9t-38 -2q-50 0 -92 20t-72.5 59t-47.5 96t-17 130z" />
    <glyph glyph-name="Egrave" unicode="&#xc8;" horiz-adv-x="647" 
d="M369 701q-17 50 -32.5 95.5t-30.5 71.5q-11 20 -31.5 27t-37.5 -4t-19 -32t12 -41q9 -12 22.5 -26.5t30.5 -30.5t36 -33.5t37 -34.5zM554 637h-522v-17l93 -21v-561l-93 -21v-17h554l23 201l-15 4l-84 -108q-12 -15 -22.5 -25.5t-23 -18t-28.5 -11.5t-37 -4l-149 -3v267
h44q22 0 37.5 -4.5t27.5 -15t20.5 -27.5t16.5 -41l10 -31h18v274h-18l-10 -33q-8 -25 -16.5 -41.5t-20.5 -26.5t-27.5 -14.5t-37.5 -4.5h-44v266l110 -2q25 0 42 -4t30 -12.5t24 -20.5t25 -29l78 -97l14 6z" />
    <glyph glyph-name="Eacute" unicode="&#xc9;" horiz-adv-x="647" 
d="M421 891q-17 11 -37 4t-32 -27q-15 -26 -31 -72t-32 -95l12 -8q18 17 37 34.5t36 33.5t31 30.5t23 26.5q14 20 12 41t-19 32zM554 637h-522v-17l93 -21v-561l-93 -21v-17h554l23 201l-15 4l-84 -108q-12 -15 -22.5 -25.5t-23 -18t-28.5 -11.5t-37 -4l-149 -3v267h44
q22 0 37.5 -4.5t27.5 -15t20.5 -27.5t16.5 -41l10 -31h18v274h-18l-10 -33q-8 -25 -16.5 -41.5t-20.5 -26.5t-27.5 -14.5t-37.5 -4.5h-44v266l110 -2q25 0 42 -4t30 -12.5t24 -20.5t25 -29l78 -97l14 6z" />
    <glyph glyph-name="Ecircumflex" unicode="&#xca;" horiz-adv-x="647" 
d="M328 776l120 -86l13 12l-121 180h-18l-129 -180l14 -12zM554 637h-522v-17l93 -21v-561l-93 -21v-17h554l23 201l-15 4l-84 -108q-12 -15 -22.5 -25.5t-23 -18t-28.5 -11.5t-37 -4l-149 -3v267h44q22 0 37.5 -4.5t27.5 -15t20.5 -27.5t16.5 -41l10 -31h18v274h-18
l-10 -33q-8 -25 -16.5 -41.5t-20.5 -26.5t-27.5 -14.5t-37.5 -4.5h-44v266l110 -2q25 0 42 -4t30 -12.5t24 -20.5t25 -29l78 -97l14 6z" />
    <glyph glyph-name="Edieresis" unicode="&#xcb;" horiz-adv-x="647" 
d="M412 728q28 0 46.5 20t18.5 46t-16 43t-42 17q-29 0 -47.5 -20t-18.5 -46t16.5 -43t42.5 -17zM231 728q28 0 46.5 20t18.5 46t-16 43t-42 17q-29 0 -47.5 -20t-18.5 -46t16.5 -43t42.5 -17zM554 637h-522v-17l93 -21v-561l-93 -21v-17h554l23 201l-15 4l-84 -108
q-12 -15 -22.5 -25.5t-23 -18t-28.5 -11.5t-37 -4l-149 -3v267h44q22 0 37.5 -4.5t27.5 -15t20.5 -27.5t16.5 -41l10 -31h18v274h-18l-10 -33q-8 -25 -16.5 -41.5t-20.5 -26.5t-27.5 -14.5t-37.5 -4.5h-44v266l110 -2q25 0 42 -4t30 -12.5t24 -20.5t25 -29l78 -97l14 6z" />
    <glyph glyph-name="Igrave" unicode="&#xcc;" horiz-adv-x="400" 
d="M240 701q-17 50 -32.5 95.5t-30.5 71.5q-11 20 -31.5 27t-37.5 -4t-19 -32t12 -41q9 -12 22.5 -26.5t30.5 -30.5t36 -33.5t37 -34.5zM263 38v561l94 21v17h-315v-17l95 -21v-561l-95 -21v-17h315v17z" />
    <glyph glyph-name="Iacute" unicode="&#xcd;" horiz-adv-x="400" 
d="M291 891q-17 11 -37 4t-32 -27q-15 -26 -31 -72t-32 -95l12 -8q18 17 37 34.5t36 33.5t31 30.5t23 26.5q14 20 12 41t-19 32zM263 38v561l94 21v17h-315v-17l95 -21v-561l-95 -21v-17h315v17z" />
    <glyph glyph-name="Icircumflex" unicode="&#xce;" horiz-adv-x="400" 
d="M203 778l120 -86l13 12l-121 180h-18l-129 -180l14 -12zM263 38v561l94 21v17h-315v-17l95 -21v-561l-95 -21v-17h315v17z" />
    <glyph glyph-name="Idieresis" unicode="&#xcf;" horiz-adv-x="400" 
d="M290 728q28 0 46.5 20t18.5 46t-16 43t-42 17q-29 0 -47.5 -20t-18.5 -46t16.5 -43t42.5 -17zM109 728q28 0 46.5 20t18.5 46t-16 43t-42 17q-29 0 -47.5 -20t-18.5 -46t16.5 -43t42.5 -17zM263 38v561l94 21v17h-315v-17l95 -21v-561l-95 -21v-17h315v17z" />
    <glyph glyph-name="Ntilde" unicode="&#xd1;" horiz-adv-x="745" 
d="M236 714l18 -6q10 25 22.5 34.5t28.5 9.5t32.5 -6t34.5 -13.5t37.5 -13.5t39.5 -6q38 0 59 27t27 89l-17 6q-10 -25 -23 -35t-29 -10q-15 0 -31.5 6t-33.5 13t-35.5 13t-38.5 6q-39 0 -60.5 -27t-30.5 -87zM125 49l-82 -32v-17h202v17l-82 32v472h7l337 -425l78 -102h43
v594l82 32v17h-203v-17l82 -32v-385h-6l-261 332l-78 102h-198v-17l79 -30v-541z" />
    <glyph glyph-name="Ograve" unicode="&#xd2;" horiz-adv-x="719" 
d="M376 704q-17 50 -32.5 95.5t-30.5 71.5q-11 20 -31.5 27t-37.5 -4t-19 -32t12 -41q9 -12 22.5 -26.5t30.5 -30.5t36 -33.5t37 -34.5zM676 319q0 67 -19.5 127.5t-58.5 106.5t-98 72.5t-138 26.5q-75 0 -134 -26.5t-100.5 -72.5t-63 -106.5t-21.5 -127.5
q0 -68 19.5 -128.5t58.5 -106.5t98 -72.5t137 -26.5q75 0 134.5 26.5t100.5 72.5t63 106.5t22 128.5zM536 319q0 -77 -13 -134t-36 -95.5t-53.5 -57.5t-64.5 -19q-38 0 -71.5 15.5t-59.5 51.5t-41 94.5t-15 144.5t13.5 144.5t36 94t53 51t65.5 15.5q37 0 71 -19t59.5 -57
t40.5 -95.5t15 -133.5z" />
    <glyph glyph-name="Oacute" unicode="&#xd3;" horiz-adv-x="719" 
d="M458 894q-17 11 -37 4t-32 -27q-15 -26 -31 -72t-32 -95l12 -8q18 17 37 34.5t36 33.5t31 30.5t23 26.5q14 20 12 41t-19 32zM676 319q0 67 -19.5 127.5t-58.5 106.5t-98 72.5t-138 26.5q-75 0 -134 -26.5t-100.5 -72.5t-63 -106.5t-21.5 -127.5q0 -68 19.5 -128.5
t58.5 -106.5t98 -72.5t137 -26.5q75 0 134.5 26.5t100.5 72.5t63 106.5t22 128.5zM536 319q0 -77 -13 -134t-36 -95.5t-53.5 -57.5t-64.5 -19q-38 0 -71.5 15.5t-59.5 51.5t-41 94.5t-15 144.5t13.5 144.5t36 94t53 51t65.5 15.5q37 0 71 -19t59.5 -57t40.5 -95.5t15 -133.5
z" />
    <glyph glyph-name="Ocircumflex" unicode="&#xd4;" horiz-adv-x="719" 
d="M349 778l120 -86l13 12l-121 180h-18l-129 -180l14 -12zM676 319q0 67 -19.5 127.5t-58.5 106.5t-98 72.5t-138 26.5q-75 0 -134 -26.5t-100.5 -72.5t-63 -106.5t-21.5 -127.5q0 -68 19.5 -128.5t58.5 -106.5t98 -72.5t137 -26.5q75 0 134.5 26.5t100.5 72.5t63 106.5
t22 128.5zM536 319q0 -77 -13 -134t-36 -95.5t-53.5 -57.5t-64.5 -19q-38 0 -71.5 15.5t-59.5 51.5t-41 94.5t-15 144.5t13.5 144.5t36 94t53 51t65.5 15.5q37 0 71 -19t59.5 -57t40.5 -95.5t15 -133.5z" />
    <glyph glyph-name="Otilde" unicode="&#xd5;" horiz-adv-x="719" 
d="M209 714l18 -6q10 25 22.5 34.5t28.5 9.5t32.5 -6t34.5 -13.5t37.5 -13.5t39.5 -6q38 0 59 27t27 89l-17 6q-10 -25 -23 -35t-29 -10q-15 0 -31.5 6t-33.5 13t-35.5 13t-38.5 6q-39 0 -60.5 -27t-30.5 -87zM676 319q0 67 -19.5 127.5t-58.5 106.5t-98 72.5t-138 26.5
q-75 0 -134 -26.5t-100.5 -72.5t-63 -106.5t-21.5 -127.5q0 -68 19.5 -128.5t58.5 -106.5t98 -72.5t137 -26.5q75 0 134.5 26.5t100.5 72.5t63 106.5t22 128.5zM536 319q0 -77 -13 -134t-36 -95.5t-53.5 -57.5t-64.5 -19q-38 0 -71.5 15.5t-59.5 51.5t-41 94.5t-15 144.5
t13.5 144.5t36 94t53 51t65.5 15.5q37 0 71 -19t59.5 -57t40.5 -95.5t15 -133.5z" />
    <glyph glyph-name="Odieresis" unicode="&#xd6;" horiz-adv-x="719" 
d="M437 728q28 0 46.5 20t18.5 46t-16 43t-42 17q-29 0 -47.5 -20t-18.5 -46t16.5 -43t42.5 -17zM256 728q28 0 46.5 20t18.5 46t-16 43t-42 17q-29 0 -47.5 -20t-18.5 -46t16.5 -43t42.5 -17zM676 319q0 67 -19.5 127.5t-58.5 106.5t-98 72.5t-138 26.5q-75 0 -134 -26.5
t-100.5 -72.5t-63 -106.5t-21.5 -127.5q0 -68 19.5 -128.5t58.5 -106.5t98 -72.5t137 -26.5q75 0 134.5 26.5t100.5 72.5t63 106.5t22 128.5zM536 319q0 -77 -13 -134t-36 -95.5t-53.5 -57.5t-64.5 -19q-38 0 -71.5 15.5t-59.5 51.5t-41 94.5t-15 144.5t13.5 144.5t36 94
t53 51t65.5 15.5q37 0 71 -19t59.5 -57t40.5 -95.5t15 -133.5z" />
    <glyph glyph-name="Oslash" unicode="&#xd8;" horiz-adv-x="719" 
d="M676 319q0 69 -19.5 129.5t-59.5 105.5l66 76l-26 24l-66 -75q-38 35 -90.5 54t-118.5 19q-75 0 -134 -26.5t-100.5 -72.5t-63 -106.5t-21.5 -127.5q0 -71 21 -133.5t64 -109.5l-73 -82l27 -24l9 10t21 23.5t24 27.5l18 21q38 -32 88.5 -49.5t113.5 -17.5
q75 0 134.5 26.5t100.5 72.5t63 106.5t22 128.5zM202 161q-9 31 -14.5 70.5t-5.5 87.5q0 86 13.5 144.5t36 94t53 51t65.5 15.5q48 0 88 -30t66 -91zM517 464q9 -31 14 -67t5 -78q0 -77 -13 -134t-36 -95.5t-53.5 -57.5t-64.5 -19q-48 0 -88 24.5t-66 84.5l17 19t43.5 49
t59 66.5t64 72.5t59 67t43 49t16.5 19z" />
    <glyph glyph-name="Ugrave" unicode="&#xd9;" horiz-adv-x="725" 
d="M451 701q-17 50 -32.5 95.5t-30.5 71.5q-11 20 -31.5 27t-37.5 -4t-19 -32t12 -41q9 -12 22.5 -26.5t30.5 -30.5t36 -33.5t37 -34.5zM583 590v-367q0 -81 -41 -132.5t-124 -51.5q-89 0 -133 41.5t-44 134.5v384l93 21v17h-312v-17l93 -21v-384q0 -118 69 -174.5
t193 -56.5q53 0 98 15.5t77.5 45t50.5 71t18 92.5v382l76 30v17h-189v-17z" />
    <glyph glyph-name="Uacute" unicode="&#xda;" horiz-adv-x="725" 
d="M507 891q-17 11 -37 4t-32 -27q-15 -26 -31 -72t-32 -95l12 -8q18 17 37 34.5t36 33.5t31 30.5t23 26.5q14 20 12 41t-19 32zM583 590v-367q0 -81 -41 -132.5t-124 -51.5q-89 0 -133 41.5t-44 134.5v384l93 21v17h-312v-17l93 -21v-384q0 -118 69 -174.5t193 -56.5
q53 0 98 15.5t77.5 45t50.5 71t18 92.5v382l76 30v17h-189v-17z" />
    <glyph glyph-name="Ucircumflex" unicode="&#xdb;" horiz-adv-x="725" 
d="M415 778l120 -86l13 12l-121 180h-18l-129 -180l14 -12zM583 590v-367q0 -81 -41 -132.5t-124 -51.5q-89 0 -133 41.5t-44 134.5v384l93 21v17h-312v-17l93 -21v-384q0 -118 69 -174.5t193 -56.5q53 0 98 15.5t77.5 45t50.5 71t18 92.5v382l76 30v17h-189v-17z" />
    <glyph glyph-name="Udieresis" unicode="&#xdc;" horiz-adv-x="725" 
d="M498 728q28 0 46.5 20t18.5 46t-16 43t-42 17q-29 0 -47.5 -20t-18.5 -46t16.5 -43t42.5 -17zM317 728q28 0 46.5 20t18.5 46t-16 43t-42 17q-29 0 -47.5 -20t-18.5 -46t16.5 -43t42.5 -17zM583 590v-367q0 -81 -41 -132.5t-124 -51.5q-89 0 -133 41.5t-44 134.5v384
l93 21v17h-312v-17l93 -21v-384q0 -118 69 -174.5t193 -56.5q53 0 98 15.5t77.5 45t50.5 71t18 92.5v382l76 30v17h-189v-17z" />
    <glyph glyph-name="germandbls" unicode="&#xdf;" horiz-adv-x="590" 
d="M566 149q0 49 -42 107t-141 120v7q75 57 108 106.5t33 96.5q0 29 -11.5 57t-33.5 49.5t-53.5 35t-71.5 13.5q-49 0 -87 -17.5t-65 -40.5q-22 -18 -40 -38.5t-30.5 -45t-19.5 -54.5t-7 -67v-26l-90 -36v-17h90v-364l-63 -21v-14h211v14l-41 17v528q0 38 6 63.5t17.5 41
t27 22t34.5 6.5q27 0 48 -11t35.5 -29.5t22 -44t7.5 -54.5q0 -28 -5.5 -54t-20 -53.5t-39 -58t-62.5 -68.5v-7q55 -36 92 -67t59.5 -58.5t32 -51.5t9.5 -47q0 -35 -19 -55t-45 -20q-11 0 -20.5 2.5t-16.5 5.5q9 20 10.5 39.5t-4 35t-18.5 25t-33 9.5q-23 0 -38 -17t-15 -40
q0 -37 33.5 -62.5t97.5 -25.5q35 0 64 13t50 35t32.5 52t11.5 64z" />
    <glyph glyph-name="agrave" unicode="&#xe0;" horiz-adv-x="476" 
d="M281 515q-17 50 -32.5 95.5t-30.5 71.5q-11 20 -31.5 27t-37.5 -4t-19 -32t12 -41q9 -12 22.5 -26.5t30.5 -30.5t36 -33.5t37 -34.5zM400 329q0 137 -134 137q-35 0 -73 -9t-69 -25t-51 -38.5t-20 -50.5q0 -23 15 -40t41 -17q25 0 40.5 17t15.5 39q0 17 -9 35t-28 33
q17 5 32 7.5t29 2.5q54 0 79.5 -26.5t25.5 -73.5v-84q-57 -4 -104.5 -15t-81.5 -29.5t-53 -45t-19 -60.5q0 -46 30.5 -74t83.5 -28q42 0 77.5 19t66.5 50l4 -2q3 -38 23 -53t49 -15t58.5 8t49.5 16l-2 12q-43 -1 -59.5 11.5t-16.5 37.5v261zM294 69q-45 -24 -79 -24
q-30 0 -48.5 18.5t-18.5 51.5q0 20 7.5 37t24.5 29.5t45 20t69 8.5v-141z" />
    <glyph glyph-name="aacute" unicode="&#xe1;" horiz-adv-x="476" 
d="M326 705q-17 11 -37 4t-32 -27q-15 -26 -31 -72t-32 -95l12 -8q18 17 37 34.5t36 33.5t31 30.5t23 26.5q14 20 12 41t-19 32zM400 329q0 137 -134 137q-35 0 -73 -9t-69 -25t-51 -38.5t-20 -50.5q0 -23 15 -40t41 -17q25 0 40.5 17t15.5 39q0 17 -9 35t-28 33
q17 5 32 7.5t29 2.5q54 0 79.5 -26.5t25.5 -73.5v-84q-57 -4 -104.5 -15t-81.5 -29.5t-53 -45t-19 -60.5q0 -46 30.5 -74t83.5 -28q42 0 77.5 19t66.5 50l4 -2q3 -38 23 -53t49 -15t58.5 8t49.5 16l-2 12q-43 -1 -59.5 11.5t-16.5 37.5v261zM294 69q-45 -24 -79 -24
q-30 0 -48.5 18.5t-18.5 51.5q0 20 7.5 37t24.5 29.5t45 20t69 8.5v-141z" />
    <glyph glyph-name="acircumflex" unicode="&#xe2;" horiz-adv-x="476" 
d="M243 592l120 -86l13 12l-121 180h-18l-129 -180l14 -12zM400 329q0 137 -134 137q-35 0 -73 -9t-69 -25t-51 -38.5t-20 -50.5q0 -23 15 -40t41 -17q25 0 40.5 17t15.5 39q0 17 -9 35t-28 33q17 5 32 7.5t29 2.5q54 0 79.5 -26.5t25.5 -73.5v-84q-57 -4 -104.5 -15
t-81.5 -29.5t-53 -45t-19 -60.5q0 -46 30.5 -74t83.5 -28q42 0 77.5 19t66.5 50l4 -2q3 -38 23 -53t49 -15t58.5 8t49.5 16l-2 12q-43 -1 -59.5 11.5t-16.5 37.5v261zM294 69q-45 -24 -79 -24q-30 0 -48.5 18.5t-18.5 51.5q0 20 7.5 37t24.5 29.5t45 20t69 8.5v-141z" />
    <glyph glyph-name="atilde" unicode="&#xe3;" horiz-adv-x="476" 
d="M90 528l18 -6q10 25 22.5 34.5t28.5 9.5t32.5 -6t34.5 -13.5t37.5 -13.5t39.5 -6q38 0 59 27t27 89l-17 6q-10 -25 -23 -35t-29 -10q-15 0 -31.5 6t-33.5 13t-35.5 13t-38.5 6q-39 0 -60.5 -27t-30.5 -87zM400 329q0 137 -134 137q-35 0 -73 -9t-69 -25t-51 -38.5
t-20 -50.5q0 -23 15 -40t41 -17q25 0 40.5 17t15.5 39q0 17 -9 35t-28 33q17 5 32 7.5t29 2.5q54 0 79.5 -26.5t25.5 -73.5v-84q-57 -4 -104.5 -15t-81.5 -29.5t-53 -45t-19 -60.5q0 -46 30.5 -74t83.5 -28q42 0 77.5 19t66.5 50l4 -2q3 -38 23 -53t49 -15t58.5 8t49.5 16
l-2 12q-43 -1 -59.5 11.5t-16.5 37.5v261zM294 69q-45 -24 -79 -24q-30 0 -48.5 18.5t-18.5 51.5q0 20 7.5 37t24.5 29.5t45 20t69 8.5v-141z" />
    <glyph glyph-name="adieresis" unicode="&#xe4;" horiz-adv-x="476" 
d="M318 542q28 0 46.5 20t18.5 46t-16 43t-42 17q-29 0 -47.5 -20t-18.5 -46t16.5 -43t42.5 -17zM137 542q28 0 46.5 20t18.5 46t-16 43t-42 17q-29 0 -47.5 -20t-18.5 -46t16.5 -43t42.5 -17zM400 329q0 137 -134 137q-35 0 -73 -9t-69 -25t-51 -38.5t-20 -50.5
q0 -23 15 -40t41 -17q25 0 40.5 17t15.5 39q0 17 -9 35t-28 33q17 5 32 7.5t29 2.5q54 0 79.5 -26.5t25.5 -73.5v-84q-57 -4 -104.5 -15t-81.5 -29.5t-53 -45t-19 -60.5q0 -46 30.5 -74t83.5 -28q42 0 77.5 19t66.5 50l4 -2q3 -38 23 -53t49 -15t58.5 8t49.5 16l-2 12
q-43 -1 -59.5 11.5t-16.5 37.5v261zM294 69q-45 -24 -79 -24q-30 0 -48.5 18.5t-18.5 51.5q0 20 7.5 37t24.5 29.5t45 20t69 8.5v-141z" />
    <glyph glyph-name="aring" unicode="&#xe5;" horiz-adv-x="476" 
d="M336 595q0 38 -24.5 65t-70.5 27q-23 0 -41.5 -8t-31 -21t-19.5 -29.5t-7 -33.5q0 -38 24.5 -66t69.5 -28q23 0 41.5 8t31.5 21.5t20 30.5t7 34zM400 329q0 137 -134 137q-35 0 -73 -9t-69 -25t-51 -38.5t-20 -50.5q0 -23 15 -40t41 -17q25 0 40.5 17t15.5 39q0 17 -9 35
t-28 33q17 5 32 7.5t29 2.5q54 0 79.5 -26.5t25.5 -73.5v-84q-57 -4 -104.5 -15t-81.5 -29.5t-53 -45t-19 -60.5q0 -46 30.5 -74t83.5 -28q42 0 77.5 19t66.5 50l4 -2q3 -38 23 -53t49 -15t58.5 8t49.5 16l-2 12q-43 -1 -59.5 11.5t-16.5 37.5v261zM280 595q0 -71 -41 -71
q-42 0 -42 70q0 71 40 71q43 0 43 -70zM294 69q-45 -24 -79 -24q-30 0 -48.5 18.5t-18.5 51.5q0 20 7.5 37t24.5 29.5t45 20t69 8.5v-141z" />
    <glyph glyph-name="ae" unicode="&#xe6;" horiz-adv-x="744" 
d="M712 260q0 45 -11.5 82.5t-35.5 65.5t-61 43.5t-87 15.5q-40 0 -75.5 -14.5t-64.5 -40.5q-29 55 -110 55q-36 0 -73.5 -9t-69 -25t-51.5 -38.5t-20 -50.5q0 -23 15 -40.5t42 -17.5q25 0 40 17t15 39q0 17 -9 35.5t-27 33.5q31 9 60 9q55 0 80 -26.5t25 -73.5v-83
q-57 -4 -104.5 -15t-81.5 -29.5t-53 -45t-19 -60.5q0 -47 31.5 -75t88.5 -28q26 0 49.5 8t45 21t40.5 29.5t36 33.5l5 -1q28 -43 74 -67t108 -24q48 0 97.5 23.5t95.5 62.5l-6 13q-45 -17 -79.5 -25t-71.5 -8q-42 0 -71 15t-46 42.5t-24.5 66t-7.5 86.5h311zM510 440
q45 0 66 -37.5t24 -107.5l-199 -9q5 69 34.5 111.5t74.5 42.5zM323 90q-26 -20 -52 -32t-56 -12t-49 18t-19 51q0 41 33 67t114 28q2 -68 29 -120z" />
    <glyph glyph-name="ccedilla" unicode="&#xe7;" horiz-adv-x="466" 
d="M145 241q0 52 12.5 88.5t34 60t50 34.5t59.5 11q11 0 19 -0.5t17 -2.5q-10 -12 -17 -29.5t-7 -37.5q0 -25 17 -45t48 -20q26 0 43 19.5t17 47.5q0 41 -42 70.5t-113 29.5q-56 0 -102 -19.5t-79 -53.5t-51.5 -79.5t-18.5 -97.5t17 -95t47.5 -73.5t72 -47.5t89.5 -17
q8 0 15 0.5t15 1.5l-112 -96l13 -15q8 2 15 3.5t16 1.5q25 0 40.5 -16t15.5 -44t-14 -43t-35 -15q-9 0 -15 1.5t-11 3.5q12 14 12 29q0 14 -7.5 24t-23.5 10q-15 0 -24.5 -10t-9.5 -26q0 -22 21.5 -37.5t57.5 -15.5q50 0 81.5 28t31.5 70q0 35 -21.5 58.5t-59.5 31.5l87 74
q52 21 96 67l-5 12q-36 -14 -69 -23t-70 -9q-34 0 -62 14t-48.5 39t-31.5 60.5t-11 77.5z" />
    <glyph glyph-name="egrave" unicode="&#xe8;" horiz-adv-x="489" 
d="M290 518q-17 50 -32.5 95.5t-30.5 71.5q-11 20 -31.5 27t-37.5 -4t-19 -32t12 -41q9 -12 22.5 -26.5t30.5 -30.5t36 -33.5t37 -34.5zM457 260q0 44 -11.5 82t-36 65.5t-61.5 43.5t-86 16q-46 0 -87.5 -19t-73 -52.5t-50.5 -79t-19 -99.5q0 -52 16 -95t46 -73.5t72 -47.5
t93 -17q48 0 97.5 23t95.5 63l-6 12q-45 -17 -79 -24.5t-72 -7.5q-42 0 -71 15t-46 42.5t-24.5 66t-7.5 86.5h311zM147 285q4 70 34 112t74 42q45 0 66 -37t24 -108z" />
    <glyph glyph-name="eacute" unicode="&#xe9;" horiz-adv-x="489" 
d="M348 708q-17 11 -37 4t-32 -27q-15 -26 -31 -72t-32 -95l12 -8q18 17 37 34.5t36 33.5t31 30.5t23 26.5q14 20 12 41t-19 32zM457 260q0 44 -11.5 82t-36 65.5t-61.5 43.5t-86 16q-46 0 -87.5 -19t-73 -52.5t-50.5 -79t-19 -99.5q0 -52 16 -95t46 -73.5t72 -47.5t93 -17
q48 0 97.5 23t95.5 63l-6 12q-45 -17 -79 -24.5t-72 -7.5q-42 0 -71 15t-46 42.5t-24.5 66t-7.5 86.5h311zM147 285q4 70 34 112t74 42q45 0 66 -37t24 -108z" />
    <glyph glyph-name="ecircumflex" unicode="&#xea;" horiz-adv-x="489" 
d="M260 592l120 -86l13 12l-121 180h-18l-129 -180l14 -12zM457 260q0 44 -11.5 82t-36 65.5t-61.5 43.5t-86 16q-46 0 -87.5 -19t-73 -52.5t-50.5 -79t-19 -99.5q0 -52 16 -95t46 -73.5t72 -47.5t93 -17q48 0 97.5 23t95.5 63l-6 12q-45 -17 -79 -24.5t-72 -7.5
q-42 0 -71 15t-46 42.5t-24.5 66t-7.5 86.5h311zM147 285q4 70 34 112t74 42q45 0 66 -37t24 -108z" />
    <glyph glyph-name="edieresis" unicode="&#xeb;" horiz-adv-x="489" 
d="M350 542q28 0 46.5 20t18.5 46t-16 43t-42 17q-29 0 -47.5 -20t-18.5 -46t16.5 -43t42.5 -17zM169 542q28 0 46.5 20t18.5 46t-16 43t-42 17q-29 0 -47.5 -20t-18.5 -46t16.5 -43t42.5 -17zM457 260q0 44 -11.5 82t-36 65.5t-61.5 43.5t-86 16q-46 0 -87.5 -19t-73 -52.5
t-50.5 -79t-19 -99.5q0 -52 16 -95t46 -73.5t72 -47.5t93 -17q48 0 97.5 23t95.5 63l-6 12q-45 -17 -79 -24.5t-72 -7.5q-42 0 -71 15t-46 42.5t-24.5 66t-7.5 86.5h311zM147 285q4 70 34 112t74 42q45 0 66 -37t24 -108z" />
    <glyph glyph-name="igrave" unicode="&#xec;" horiz-adv-x="280" 
d="M181 515q-17 50 -32.5 95.5t-30.5 71.5q-11 20 -31.5 27t-37.5 -4t-19 -32t12 -41q9 -12 22.5 -26.5t30.5 -30.5t36 -33.5t37 -34.5zM92 35l-66 -21v-14h236v14l-63 21v431l-4 3l-165 -39v-10l62 -45v-340z" />
    <glyph glyph-name="iacute" unicode="&#xed;" horiz-adv-x="280" 
d="M228 705q-17 11 -37 4t-32 -27q-15 -26 -31 -72t-32 -95l12 -8q18 17 37 34.5t36 33.5t31 30.5t23 26.5q14 20 12 41t-19 32zM92 35l-66 -21v-14h236v14l-63 21v431l-4 3l-165 -39v-10l62 -45v-340z" />
    <glyph glyph-name="icircumflex" unicode="&#xee;" horiz-adv-x="280" 
d="M138 592l120 -86l13 12l-121 180h-18l-129 -180l14 -12zM92 35l-66 -21v-14h236v14l-63 21v431l-4 3l-165 -39v-10l62 -45v-340z" />
    <glyph glyph-name="idieresis" unicode="&#xef;" horiz-adv-x="280" 
d="M228 542q28 0 46.5 20t18.5 46t-16 43t-42 17q-29 0 -47.5 -20t-18.5 -46t16.5 -43t42.5 -17zM47 542q28 0 46.5 20t18.5 46t-16 43t-42 17q-29 0 -47.5 -20t-18.5 -46t16.5 -43t42.5 -17zM92 35l-66 -21v-14h236v14l-63 21v431l-4 3l-165 -39v-10l62 -45v-340z" />
    <glyph glyph-name="ntilde" unicode="&#xf1;" horiz-adv-x="560" 
d="M132 528l18 -6q10 25 22.5 34.5t28.5 9.5t32.5 -6t34.5 -13.5t37.5 -13.5t39.5 -6q38 0 59 27t27 89l-17 6q-10 -25 -23 -35t-29 -10q-15 0 -31.5 6t-33.5 13t-35.5 13t-38.5 6q-39 0 -60.5 -27t-30.5 -87zM487 328q0 27 -6.5 52t-21 44.5t-38 31t-57.5 11.5
q-83 0 -171 -84l-4 2l2 81l-4 3l-160 -39v-10l63 -45v-340l-63 -21v-14h226v14l-56 21v331q28 14 50 19.5t51 5.5q47 0 64.5 -27.5t17.5 -76.5v-252l-56 -21v-14h226v14l-63 21v293z" />
    <glyph glyph-name="ograve" unicode="&#xf2;" horiz-adv-x="530" 
d="M305 518q-17 50 -32.5 95.5t-30.5 71.5q-11 20 -31.5 27t-37.5 -4t-19 -32t12 -41q9 -12 22.5 -26.5t30.5 -30.5t36 -33.5t37 -34.5zM497 227q0 49 -14 93t-41.5 76.5t-70 51.5t-99.5 19q-58 0 -102.5 -20.5t-75 -54t-46.5 -77t-16 -89.5q0 -50 14 -94t42.5 -77t71 -52
t99.5 -19q58 0 102.5 20.5t74.5 54.5t45.5 77.5t15.5 90.5zM380 227q0 -103 -29 -159t-84 -56q-54 0 -85.5 55t-31.5 157q0 103 30 159t83 56q56 0 86.5 -55t30.5 -157z" />
    <glyph glyph-name="oacute" unicode="&#xf3;" horiz-adv-x="530" 
d="M355 708q-17 11 -37 4t-32 -27q-15 -26 -31 -72t-32 -95l12 -8q18 17 37 34.5t36 33.5t31 30.5t23 26.5q14 20 12 41t-19 32zM497 227q0 49 -14 93t-41.5 76.5t-70 51.5t-99.5 19q-58 0 -102.5 -20.5t-75 -54t-46.5 -77t-16 -89.5q0 -50 14 -94t42.5 -77t71 -52t99.5 -19
q58 0 102.5 20.5t74.5 54.5t45.5 77.5t15.5 90.5zM380 227q0 -103 -29 -159t-84 -56q-54 0 -85.5 55t-31.5 157q0 103 30 159t83 56q56 0 86.5 -55t30.5 -157z" />
    <glyph glyph-name="ocircumflex" unicode="&#xf4;" horiz-adv-x="530" 
d="M265 592l120 -86l13 12l-121 180h-18l-129 -180l14 -12zM497 227q0 49 -14 93t-41.5 76.5t-70 51.5t-99.5 19q-58 0 -102.5 -20.5t-75 -54t-46.5 -77t-16 -89.5q0 -50 14 -94t42.5 -77t71 -52t99.5 -19q58 0 102.5 20.5t74.5 54.5t45.5 77.5t15.5 90.5zM380 227
q0 -103 -29 -159t-84 -56q-54 0 -85.5 55t-31.5 157q0 103 30 159t83 56q56 0 86.5 -55t30.5 -157z" />
    <glyph glyph-name="otilde" unicode="&#xf5;" horiz-adv-x="530" 
d="M114 528l18 -6q10 25 22.5 34.5t28.5 9.5t32.5 -6t34.5 -13.5t37.5 -13.5t39.5 -6q38 0 59 27t27 89l-17 6q-10 -25 -23 -35t-29 -10q-15 0 -31.5 6t-33.5 13t-35.5 13t-38.5 6q-39 0 -60.5 -27t-30.5 -87zM497 227q0 49 -14 93t-41.5 76.5t-70 51.5t-99.5 19
q-58 0 -102.5 -20.5t-75 -54t-46.5 -77t-16 -89.5q0 -50 14 -94t42.5 -77t71 -52t99.5 -19q58 0 102.5 20.5t74.5 54.5t45.5 77.5t15.5 90.5zM380 227q0 -103 -29 -159t-84 -56q-54 0 -85.5 55t-31.5 157q0 103 30 159t83 56q56 0 86.5 -55t30.5 -157z" />
    <glyph glyph-name="odieresis" unicode="&#xf6;" horiz-adv-x="530" 
d="M354 542q28 0 46.5 20t18.5 46t-16 43t-42 17q-29 0 -47.5 -20t-18.5 -46t16.5 -43t42.5 -17zM173 542q28 0 46.5 20t18.5 46t-16 43t-42 17q-29 0 -47.5 -20t-18.5 -46t16.5 -43t42.5 -17zM497 227q0 49 -14 93t-41.5 76.5t-70 51.5t-99.5 19q-58 0 -102.5 -20.5
t-75 -54t-46.5 -77t-16 -89.5q0 -50 14 -94t42.5 -77t71 -52t99.5 -19q58 0 102.5 20.5t74.5 54.5t45.5 77.5t15.5 90.5zM380 227q0 -103 -29 -159t-84 -56q-54 0 -85.5 55t-31.5 157q0 103 30 159t83 56q56 0 86.5 -55t30.5 -157z" />
    <glyph glyph-name="divide" unicode="&#xf7;" horiz-adv-x="505" 
d="M253 523q-26 0 -43 -17.5t-17 -41.5q0 -25 17 -42.5t43 -17.5q24 0 41.5 17.5t17.5 42.5q0 24 -17.5 41.5t-41.5 17.5zM464 281v51h-423v-51h423zM253 209q-26 0 -43 -17.5t-17 -42.5t17 -42t43 -17q24 0 41.5 17t17.5 42t-17.5 42.5t-41.5 17.5z" />
    <glyph glyph-name="oslash" unicode="&#xf8;" horiz-adv-x="530" 
d="M439 400q6 8 18 22t20.5 23.5t9.5 11.5l-27 23q-1 -2 -9 -11.5t-20 -23.5t-19 -21q-26 20 -61 31.5t-79 11.5q-58 0 -102.5 -20.5t-75 -54t-46.5 -77t-16 -89.5q0 -52 15 -97t45 -78l-50 -58l27 -22l49 56q27 -20 62 -31.5t79 -11.5q58 0 102.5 20.5t74.5 54.5t45.5 77.5
t15.5 90.5q0 51 -14.5 95.5t-43.5 77.5zM359 362l-200 -233q-9 40 -9 95q0 103 30 159t83 56q67 0 96 -77zM380 227q0 -103 -29 -159t-84 -56q-65 0 -96 77l15 17.5t37 43t48 56t48 56t37 42.5l15 17q4 -20 6.5 -44t2.5 -50z" />
    <glyph glyph-name="ugrave" unicode="&#xf9;" horiz-adv-x="551" 
d="M309 515q-17 50 -32.5 95.5t-30.5 71.5q-11 20 -31.5 27t-37.5 -4t-19 -32t12 -41q9 -12 22.5 -26.5t30.5 -30.5t36 -33.5t37 -34.5zM476 61v405l-4 3l-164 -39v-10l61 -37v-299q-28 -13 -49.5 -18.5t-50.5 -5.5q-47 0 -65 27t-18 77v302l-4 3l-164 -39v-10l61 -37v-260
q0 -27 6.5 -52t21.5 -44.5t38.5 -31t57.5 -11.5q81 0 170 84l4 -3l-2 -79l4 -2l160 40v10z" />
    <glyph glyph-name="uacute" unicode="&#xfa;" horiz-adv-x="551" 
d="M363 705q-17 11 -37 4t-32 -27q-15 -26 -31 -72t-32 -95l12 -8q18 17 37 34.5t36 33.5t31 30.5t23 26.5q14 20 12 41t-19 32zM476 61v405l-4 3l-164 -39v-10l61 -37v-299q-28 -13 -49.5 -18.5t-50.5 -5.5q-47 0 -65 27t-18 77v302l-4 3l-164 -39v-10l61 -37v-260
q0 -27 6.5 -52t21.5 -44.5t38.5 -31t57.5 -11.5q81 0 170 84l4 -3l-2 -79l4 -2l160 40v10z" />
    <glyph glyph-name="ucircumflex" unicode="&#xfb;" horiz-adv-x="551" 
d="M273 592l120 -86l13 12l-121 180h-18l-129 -180l14 -12zM476 61v405l-4 3l-164 -39v-10l61 -37v-299q-28 -13 -49.5 -18.5t-50.5 -5.5q-47 0 -65 27t-18 77v302l-4 3l-164 -39v-10l61 -37v-260q0 -27 6.5 -52t21.5 -44.5t38.5 -31t57.5 -11.5q81 0 170 84l4 -3l-2 -79
l4 -2l160 40v10z" />
    <glyph glyph-name="udieresis" unicode="&#xfc;" horiz-adv-x="551" 
d="M355 542q28 0 46.5 20t18.5 46t-16 43t-42 17q-29 0 -47.5 -20t-18.5 -46t16.5 -43t42.5 -17zM174 542q28 0 46.5 20t18.5 46t-16 43t-42 17q-29 0 -47.5 -20t-18.5 -46t16.5 -43t42.5 -17zM476 61v405l-4 3l-164 -39v-10l61 -37v-299q-28 -13 -49.5 -18.5t-50.5 -5.5
q-47 0 -65 27t-18 77v302l-4 3l-164 -39v-10l61 -37v-260q0 -27 6.5 -52t21.5 -44.5t38.5 -31t57.5 -11.5q81 0 170 84l4 -3l-2 -79l4 -2l160 40v10z" />
    <glyph glyph-name="ydieresis" unicode="&#xff;" horiz-adv-x="492" 
d="M366 542q28 0 46.5 20t18.5 46t-16 43t-42 17q-29 0 -47.5 -20t-18.5 -46t16.5 -43t42.5 -17zM185 542q28 0 46.5 20t18.5 46t-16 43t-42 17q-29 0 -47.5 -20t-18.5 -46t16.5 -43t42.5 -17zM441 405l65 33v13h-172v-13l58 -31l-98 -286h-5l-108 293l64 24v13h-244v-13
l61 -24l177 -427l-17 -38q-10 -21 -25.5 -45t-29.5 -40q-18 23 -35 35.5t-43 12.5q-24 0 -42 -17t-18 -40q0 -24 19 -43.5t59 -19.5q47 0 84 42t75 135z" />
    <glyph glyph-name="dotaccent" unicode="&#x2d9;" horiz-adv-x="200" 
d="M162 608q0 26 -16.5 43t-42.5 17q-28 0 -46.5 -20t-18.5 -46t16.5 -43t42.5 -17q28 0 46.5 20t18.5 46z" />
    <glyph glyph-name="apple" unicode="&#xf8ff;" horiz-adv-x="694" 
d="M644 -200v921h-101l-29 79h-334l-30 -79h-100v-554q14 0 23 -9.5t9 -22.5q0 -14 -9 -23t-23 -9v-303h207l8 14h163l8 -14h208zM400 563h58v-14h-43v-66h38v-14h-38v-78h-15v172zM184 563h15v-79h47v79h15v-172h-15v79h-47v-79h-15v172zM460 394v16q4 -2 10 -4t10 -2
q16 0 16 22v137h16v-137q0 -36 -31 -36q-5 0 -11.5 1t-9.5 3zM349 438q2 7 4.5 15t4.5 15l13 -3q-2 -11 -5.5 -20.5t-7.5 -18.5l16 -30l-11 -8l-12 24h-1q-4 -9 -10.5 -16.5t-16.5 -7.5q-14 0 -22.5 11t-8.5 28q0 27 23 45q-6 11 -10 19.5t-4 19.5t7.5 21t20.5 10
q14 0 20.5 -10t6.5 -21q0 -12 -6.5 -22.5t-16.5 -19.5zM523 323h8v-24l21 24h10l-18 -20l19 -26h-9l-16 20l-7 -7v-13h-8v46zM488 292h-12v-15h-8v46h21q8 0 12 -4.5t4 -9.5q0 -12 -10 -15l12 -17h-9zM426 276q-11 0 -17 7t-6 17q0 9 6 16.5t17 7.5t17.5 -7.5t6.5 -16.5
q0 -10 -6.5 -17t-17.5 -7zM370 301l13 22h9l-18 -29v-17h-8v17l-18 29h9zM193 323h33v-7h-25v-12h22v-7h-22v-13h25v-7h-33v46zM132 323h7l25 -32v32h8v-46h-7l-25 32v-32h-8v46zM241 323h8l10 -35h1l11 35h8l10 -35h1l10 35h8l-14 -47h-8l-11 34h-1l-10 -34h-8zM327 479
q15 16 15 32q0 8 -3.5 13.5t-9.5 5.5t-10 -5.5t-4 -13.5t3.5 -15zM342 423l-20 39q-15 -15 -15 -33q0 -11 4.5 -19t12.5 -8q5 0 10.5 6.5t7.5 14.5zM488 299q9 0 9 9q0 8 -10 8h-11v-17h12zM426 283q7 0 11.5 5t4.5 12q0 6 -4.5 11.5t-11.5 5.5t-11 -5.5t-4 -11.5
q0 -7 4 -12t11 -5z" />
    <glyph glyph-name="approxequal" unicode="&#x2248;" horiz-adv-x="891" 
d="M510 449v55q0 98 32 146t99 59q2 -60 26 -89.5t57 -29.5q26 0 41.5 16.5t15.5 42.5q0 15 -7 31t-23 29.5t-42.5 22.5t-65.5 9q-42 0 -79 -13t-64 -33q-9 -7 -17 -14t-15 -15q-3 13 -11 26.5t-22.5 24.5t-37 17.5t-55.5 6.5q-42 0 -79.5 -13.5t-63.5 -33.5
q-48 -35 -71.5 -85t-23.5 -122v-35l-91 -36v-17h91v-364l-63 -21v-14h236v14l-66 21v364h193v-364l-63 -21v-14h234v14l-65 21v364h194v-364l-64 -21v-14h233v14l-63 21v431l-4 3l-84 -20h-212zM211 449v57q0 96 29 143.5t94 59.5q4 -63 30 -89.5t58 -23.5q-18 -47 -18 -110
v-37h-193z" />
    <glyph glyph-name="greaterequal" unicode="&#x2265;" 
d="M25 -200h450v1000h-450v-1000z" />
    <glyph glyph-name="infinity" unicode="&#x221e;" 
d="M25 -200h450v1000h-450v-1000z" />
    <glyph glyph-name="integral" unicode="&#x222b;" 
d="M25 -200h450v1000h-450v-1000z" />
    <glyph glyph-name="lessequal" unicode="&#x2264;" 
d="M25 -200h450v1000h-450v-1000z" />
    <glyph glyph-name="lozenge" unicode="&#x25ca;" 
d="M447 617l26 9v11h-87l-10 -31l-33 -89h-2l-34 89l-11 31h-87v-11l24 -9v-141l-24 -12v-10h67v10l-25 12v137h4l64 -159h18l60 159h4v-140l-22 -9v-10h94v10l-26 9v144zM180 511q0 23 -15 34t-40 19q-23 8 -35 16t-12 22q0 12 6.5 19.5t17.5 7.5t24 -10.5t35 -39.5l11 1
l-4 62h-10l-8 -9q-8 3 -20 5.5t-24 2.5q-26 0 -46 -16t-20 -42q0 -25 16.5 -36.5t40.5 -19.5t35.5 -15.5t11.5 -21.5t-8 -21.5t-21 -7.5q-33 0 -68 56h-12l3 -70h10l9 11q10 -4 25 -7t29 -3q29 0 49 16.5t20 46.5z" />
    <glyph glyph-name="nonbreakingspace" unicode="&#xa0;" horiz-adv-x="110" 
 />
    <glyph glyph-name="notequal" unicode="&#x2260;" 
d="M25 -200h450v1000h-450v-1000z" />
    <glyph glyph-name="partialdiff" unicode="&#x2202;" 
d="M25 -200h450v1000h-450v-1000z" />
    <glyph glyph-name="pi" unicode="&#x3c0;" horiz-adv-x="734" 
d="M701 319q0 69 -26.5 129.5t-71.5 106t-106 71.5t-130 26t-130 -26t-106 -71.5t-71.5 -106t-26.5 -129.5t26.5 -130t71.5 -106.5t106 -71.5t130 -26t130 26t106 71.5t71.5 106.5t26.5 130zM668 319q0 -63 -23.5 -118.5t-64.5 -97t-96 -65.5t-117 -24t-117 24t-96 65.5
t-64.5 97t-23.5 118.5q0 62 23.5 117t64.5 96.5t96 65.5t117 24t117 -24t96 -65.5t64.5 -96.5t23.5 -117zM527 387q0 19 -7 37.5t-22 32t-39.5 22t-59.5 8.5h-176v-15l47 -14v-280l-47 -12v-16h178v16l-52 12v110q28 -5 55 -5q29 0 52 9t38.5 23.5t24 33t8.5 38.5zM444 388
q0 -35 -15.5 -55t-46.5 -22q-8 -1 -17.5 -1.5t-15.5 -0.5v155q5 1 15 1t17 -1q63 -5 63 -76z" />
    <glyph glyph-name="product" unicode="&#x220f;" 
d="M25 -200h450v1000h-450v-1000z" />
    <glyph glyph-name="radical" unicode="&#x221a;" horiz-adv-x="890" 
d="M810 35v704l-4 3l-72 -20q-16 8 -38.5 13.5t-52.5 5.5q-42 0 -79 -13t-64 -33q-9 -7 -17 -14t-15 -15q-3 13 -11 26.5t-22.5 24.5t-37 17.5t-55.5 6.5q-42 0 -79.5 -13.5t-63.5 -33.5q-48 -35 -71.5 -85t-23.5 -122v-35l-91 -36v-17h91v-364l-63 -21v-14h236v14l-66 21
v364h193v-364l-63 -21v-14h234v14l-65 21v364h194v-364l-67 -21v-14h236v14zM510 449v55q0 98 32 146t99 59q2 -51 19.5 -79.5t43.5 -36.5v-144h-194zM211 449v57q0 96 29 143.5t94 59.5q4 -63 30 -89.5t58 -23.5q-18 -47 -18 -110v-37h-193z" />
    <glyph glyph-name="summation" unicode="&#x2211;" 
d="M25 -200h450v1000h-450v-1000z" />
    <glyph glyph-name="breve" unicode="&#x2d8;" horiz-adv-x="336" 
d="M168 592q-43 0 -73 20t-46 55l-22 -7q8 -66 43 -105t98 -39t98 39t43 105l-22 7q-17 -35 -46.5 -55t-72.5 -20z" />
    <glyph glyph-name="fraction" unicode="&#x2215;" horiz-adv-x="536" 
d="M517 620l-33 25l-230 -329l-235 -326l33 -24l230 329z" />
    <glyph glyph-name="Lslash" unicode="&#x141;" horiz-adv-x="609" 
d="M580 206l-13 4l-86 -113q-11 -15 -22 -26t-23.5 -18.5t-28.5 -11.5t-37 -4l-119 -2v274l132 35l-11 38l-121 -33v250l93 21v17h-312v-17l93 -21v-284l-79 -21l10 -39l69 19v-236l-93 -21v-17h523z" />
    <glyph glyph-name="lslash" unicode="&#x142;" horiz-adv-x="308" 
d="M211 350l95 26l-10 37l-85 -22v347l-4 3l-172 -47v-10l69 -45v-278l-83 -22l10 -37l11.5 3t25 7t25 6.5l11.5 2.5v-286l-67 -21v-14h237v14l-63 21v315z" />
    <glyph glyph-name="Zcaron" unicode="&#x17d;" horiz-adv-x="634" 
d="M338 804l-121 87l-14 -11l122 -180h18l128 180l-13 11zM592 209l-12 4l-81 -109q-12 -16 -22.5 -28t-23 -20.5t-28 -12.5t-36.5 -4l-197 -2l397 590l-4 10h-499l-20 -185l14 -6l70 81q16 19 29.5 32t27 21.5t29.5 13t37 4.5l158 1l-399 -589l4 -10h535z" />
    <glyph glyph-name="zcaron" unicode="&#x17e;" horiz-adv-x="468" 
d="M233 618l-121 87l-14 -11l122 -180h18l128 180l-13 11zM443 441l-6 10h-381l-10 -150l14 -6l102 123h144l-286 -407l6 -11h397l14 150l-15 6l-110 -123h-155z" />
    <glyph glyph-name="Scaron" unicode="&#x160;" horiz-adv-x="535" 
d="M272 804l-121 87l-14 -11l122 -180h18l128 180l-13 11zM489 195q0 56 -29 95.5t-90 68.5q-28 14 -57.5 25t-55.5 23q-53 23 -72 51t-19 63q0 45 26 71t69 26q97 0 179 -164l20 3l-17 196h-17l-39 -34q-25 14 -52 23.5t-65 9.5t-74.5 -13t-65.5 -38t-46.5 -60t-17.5 -80
q0 -110 107 -163q23 -11 49.5 -21t50.5 -20q35 -15 58 -28t36 -28t18 -32.5t5 -39.5q0 -48 -30 -79t-84 -31q-26 0 -52.5 9.5t-53 31.5t-51.5 58.5t-49 90.5l-21 -2l12 -222h18l39 35q29 -15 68 -25t84 -10q40 0 79.5 14t70.5 41t50 66t19 89z" />
    <glyph glyph-name="scaron" unicode="&#x161;" horiz-adv-x="403" 
d="M206 618l-121 87l-14 -11l122 -180h18l128 180l-13 11zM369 136q0 32 -11.5 54.5t-30.5 38.5t-42 27t-47 21q-21 9 -41 17.5t-35.5 19.5t-25 25t-9.5 34q0 27 18 45.5t50 18.5q35 0 62.5 -25.5t64.5 -86.5l19 5l-3 119q-10 4 -25 7t-31.5 5.5t-33 4t-31.5 1.5
q-38 0 -70 -11t-54.5 -30.5t-35 -45t-12.5 -55.5q0 -31 11.5 -53t30 -38t41.5 -27.5t47 -21.5q21 -9 41 -17.5t35.5 -19t24.5 -25t9 -33.5q0 -35 -20.5 -55.5t-55.5 -20.5q-40 0 -74 30t-74 101l-20 -2l1 -132q35 -14 70.5 -20.5t77.5 -6.5q36 0 68.5 10.5t57 30.5t39 48
t14.5 63z" />
    <glyph glyph-name="brokenbar" unicode="&#xa6;" horiz-adv-x="269" 
d="M156 284l-3 208l3 209h-43l3 -209l-3 -208h43zM156 -241l-3 209l3 208h-43l3 -208l-3 -209h43z" />
    <glyph glyph-name="minus" unicode="&#x2212;" horiz-adv-x="505" 
d="M464 279v55h-423v-55h423z" />
    <glyph glyph-name="twosuperior" unicode="&#xb2;" 
d="M25 -200h450v1000h-450v-1000z" />
    <glyph glyph-name="threesuperior" unicode="&#xb3;" 
d="M25 -200h450v1000h-450v-1000z" />
    <glyph glyph-name="onesuperior" unicode="&#xb9;" 
d="M25 -200h450v1000h-450v-1000z" />
    <glyph glyph-name="onequarter" unicode="&#xbc;" 
d="M25 -200h450v1000h-450v-1000z" />
    <glyph glyph-name="onehalf" unicode="&#xbd;" 
d="M25 -200h450v1000h-450v-1000z" />
    <glyph glyph-name="threequarters" unicode="&#xbe;" 
d="M25 -200h450v1000h-450v-1000z" />
    <glyph glyph-name="Eth" unicode="&#xd0;" horiz-adv-x="735" 
d="M692 319q0 67 -23 125.5t-68 101t-111 67t-151 24.5h-307v-17l93 -21v-250h-85v-40h85v-271l-93 -21v-17h301q82 0 148 24.5t113 67t72.5 101t25.5 126.5zM552 319q0 -76 -15.5 -129t-43 -87t-66.5 -49.5t-86 -16.5l-91 -2v274h116v40h-116v254l69 -2q50 -2 93 -17.5
t74 -49t48.5 -86.5t17.5 -129z" />
    <glyph glyph-name="multiply" unicode="&#xd7;" horiz-adv-x="505" 
d="M286 306l140 143l-37 35l-137 -142l-137 142l-37 -35l140 -143l-141 -143l38 -36l137 143l137 -143l38 36z" />
    <glyph glyph-name="Yacute" unicode="&#xdd;" horiz-adv-x="635" 
d="M477 891q-17 11 -37 4t-32 -27q-15 -26 -31 -72t-32 -95l12 -8q18 17 37 34.5t36 33.5t31 30.5t23 26.5q14 20 12 41t-19 32zM575 590l73 30v17h-209v-17l67 -30l-139 -261l-145 267l80 24v17h-305v-17l82 -29l187 -318v-231l-96 -25v-17h317v17l-96 25v256z" />
    <glyph glyph-name="Thorn" unicode="&#xde;" horiz-adv-x="612" 
d="M578 324q0 37 -13 69.5t-41.5 57.5t-72.5 39.5t-105 14.5q-23 0 -48 -2.5t-48 -6.5v102l99 22v17h-317v-17l93 -22v-560l-93 -21v-17h317v17l-99 21v105q24 -3 52 -5.5t53 -2.5q54 0 96 16t70 42.5t42.5 60.5t14.5 70zM445 322q0 -72 -33 -110.5t-97 -39.5h-16h-19
t-18.5 0.5t-11.5 1.5v294q4 1 13 1.5t19 0.5h20h14q63 -1 96 -40t33 -108z" />
    <glyph glyph-name="eth" unicode="&#xf0;" horiz-adv-x="533" 
d="M504 289q0 96 -36 179.5t-103 147.5l83 36l-14 34l-101 -42q-83 66 -199 98l-8 -17q84 -47 138 -111l-90 -38l14 -36l100 43q25 -35 43 -72.5t30 -78.5l-3 -2q-21 17 -48 27t-64 10q-44 0 -83 -18.5t-68 -51t-46 -76.5t-17 -96q0 -51 15 -95t43.5 -76.5t70 -50.5
t94.5 -18q57 0 103 23t78.5 63.5t50 96.5t17.5 121zM385 251q0 -109 -25 -171.5t-82 -62.5q-27 0 -50 13.5t-40 39t-27 63t-10 85.5q0 98 38.5 149.5t95.5 51.5q25 0 44 -4t40 -14q16 -71 16 -150z" />
    <glyph glyph-name="yacute" unicode="&#xfd;" horiz-adv-x="492" 
d="M371 705q-17 11 -37 4t-32 -27q-15 -26 -31 -72t-32 -95l12 -8q18 17 37 34.5t36 33.5t31 30.5t23 26.5q14 20 12 41t-19 32zM441 405l65 33v13h-172v-13l58 -31l-98 -286h-5l-108 293l64 24v13h-244v-13l61 -24l177 -427l-17 -38q-10 -21 -25.5 -45t-29.5 -40
q-18 23 -35 35.5t-43 12.5q-24 0 -42 -17t-18 -40q0 -24 19 -43.5t59 -19.5q47 0 84 42t75 135z" />
    <glyph glyph-name="thorn" unicode="&#xfe;" horiz-adv-x="540" 
d="M504 239q0 52 -14 94t-38 71.5t-56.5 45.5t-70.5 16q-48 0 -84.5 -19.5t-62.5 -46.5l-4 3v335l-4 3l-173 -47v-10l70 -45v-810l-63 -24v-13h243v13l-73 24v163q18 -4 36 -6t38 -2q60 0 107.5 21t80.5 56.5t50.5 81.5t17.5 96zM391 213q0 -53 -9.5 -91t-25.5 -62
t-36.5 -35.5t-42.5 -11.5q-32 0 -56.5 13t-46.5 38v311q19 9 41 15.5t42 6.5q63 0 98.5 -48t35.5 -136z" />
    <glyph glyph-name="Delta" unicode="&#x394;" 
d="M25 -200h450v1000h-450v-1000z" />
    <glyph glyph-name="Omega" unicode="&#x3a9;" horiz-adv-x="624" 
d="M510 449v83q0 40 4.5 69.5t14 50t24.5 34t36 21.5q14 -51 38.5 -77.5t54.5 -26.5q27 0 41.5 16t14.5 42q0 14 -7 28t-21.5 25.5t-36 19t-49.5 7.5q-35 0 -68 -10.5t-60 -31.5q-17 -12 -30 -27q-7 25 -35.5 47t-88.5 22q-42 0 -79.5 -13.5t-63.5 -33.5q-48 -35 -71.5 -85
t-23.5 -122v-35l-91 -36v-17h91v-364l-63 -21v-14h236v14l-66 21v364h193v-364l-63 -21v-14h244v14l-75 21v364h125v50h-125zM211 449v57q0 96 29 143.5t94 59.5q5 -61 30 -88t56 -24q-16 -42 -16 -103v-45h-193z" />
    </font>
</defs>
</svg>
